<svg width="42" height="52" viewBox="0 0 42 52" fill="none" xmlns="http://www.w3.org/2000/svg">
<path d="M40.6665 21.3312C40.6655 10.4875 31.8438 1.6665 20.9999 1.6665C10.1564 1.6665 1.33442 10.4869 1.3332 21.3193C1.29854 29.2208 5.99931 36.3357 10.6342 41.4493C15.15 46.4314 19.7546 49.6786 20.3732 50.1148C20.3932 50.129 20.4091 50.1402 20.4207 50.1484L20.9925 50.5547L21.5692 50.1553L20.9999 49.3332C21.5692 50.1553 21.5695 50.1551 21.5698 50.1548L21.5709 50.1541L21.5743 50.1517L21.5863 50.1434L21.6301 50.1126C21.6679 50.0859 21.723 50.0468 21.7942 49.9956C21.9365 49.8933 22.143 49.7426 22.4047 49.5464C22.9279 49.154 23.672 48.5788 24.5632 47.842C26.344 46.3699 28.7201 44.2465 31.0971 41.6423C35.8133 36.4757 40.7011 29.2351 40.6665 21.3312ZM40.6665 21.3312C40.6665 21.3319 40.6665 21.3325 40.6665 21.3332H39.6665M40.6665 21.3312C40.6665 21.3304 40.6665 21.3295 40.6665 21.3287L39.6665 21.3332M39.6665 21.3332C39.6665 11.0408 31.2922 2.6665 20.9999 2.6665C10.7075 2.6665 2.3332 11.0408 2.3332 21.3215L39.6665 21.3332ZM20.9999 29.6665C16.3955 29.6665 12.6665 25.9376 12.6665 21.3332C12.6665 16.7288 16.3955 12.9998 20.9999 12.9998C25.6042 12.9998 29.3332 16.7288 29.3332 21.3332C29.3332 25.9376 25.6042 29.6665 20.9999 29.6665Z" fill="#C52978" stroke="white" stroke-width="2"/>
</svg>
