<svg aria-hidden="true" xmlns="http://www.w3.org/2000/svg" xmlns:xlink="http://www.w3.org/1999/xlink"><symbol viewBox="0 0 24 24" fill="none" id="book-broken" xmlns="http://www.w3.org/2000/svg">
<path d="M19.898 16H7.898C6.968 16 6.503 16 6.121 16.102C5.61231 16.2384 5.14849 16.5063 4.77618 16.8788C4.40386 17.2513 4.13616 17.7152 4 18.224" stroke="currentColor" stroke-width="1.5"/>
<path d="M8 7H16M8 10.5H13M10 22C7.172 22 5.757 22 4.879 21.121C4 20.243 4 18.828 4 16V8C4 5.172 4 3.757 4.879 2.879C5.757 2 7.172 2 10 2H14C16.828 2 18.243 2 19.121 2.879C20 3.757 20 5.172 20 8M14 22C16.828 22 18.243 22 19.121 21.121C20 20.243 20 18.828 20 16V12" stroke="currentColor" stroke-width="1.5" stroke-linecap="round"/>
</symbol><symbol viewBox="0 0 24 24" fill="none" id="calc" xmlns="http://www.w3.org/2000/svg">
<path d="M9.60078 13.2C9.60078 13.5183 9.47435 13.8235 9.24931 14.0486C9.02427 14.2736 8.71904 14.4 8.40078 14.4C8.08252 14.4 7.7773 14.2736 7.55225 14.0486C7.32721 13.8235 7.20078 13.5183 7.20078 13.2C7.20078 12.8818 7.32721 12.5765 7.55225 12.3515C7.7773 12.1265 8.08252 12 8.40078 12C8.71904 12 9.02427 12.1265 9.24931 12.3515C9.47435 12.5765 9.60078 12.8818 9.60078 13.2ZM9.60078 16.8C9.60078 17.1183 9.47435 17.4235 9.24931 17.6486C9.02427 17.8736 8.71904 18 8.40078 18C8.08252 18 7.7773 17.8736 7.55225 17.6486C7.32721 17.4235 7.20078 17.1183 7.20078 16.8C7.20078 16.4818 7.32721 16.1765 7.55225 15.9515C7.7773 15.7265 8.08252 15.6 8.40078 15.6C8.71904 15.6 9.02427 15.7265 9.24931 15.9515C9.47435 16.1765 9.60078 16.4818 9.60078 16.8ZM15.6008 14.4C15.919 14.4 16.2243 14.2736 16.4493 14.0486C16.6744 13.8235 16.8008 13.5183 16.8008 13.2C16.8008 12.8818 16.6744 12.5765 16.4493 12.3515C16.2243 12.1265 15.919 12 15.6008 12C15.2825 12 14.9773 12.1265 14.7523 12.3515C14.5272 12.5765 14.4008 12.8818 14.4008 13.2C14.4008 13.5183 14.5272 13.8235 14.7523 14.0486C14.9773 14.2736 15.2825 14.4 15.6008 14.4ZM16.8008 16.8C16.8008 17.1183 16.6744 17.4235 16.4493 17.6486C16.2243 17.8736 15.919 18 15.6008 18C15.2825 18 14.9773 17.8736 14.7523 17.6486C14.5272 17.4235 14.4008 17.1183 14.4008 16.8C14.4008 16.4818 14.5272 16.1765 14.7523 15.9515C14.9773 15.7265 15.2825 15.6 15.6008 15.6C15.919 15.6 16.2243 15.7265 16.4493 15.9515C16.6744 16.1765 16.8008 16.4818 16.8008 16.8ZM12.0008 14.4C12.319 14.4 12.6243 14.2736 12.8493 14.0486C13.0744 13.8235 13.2008 13.5183 13.2008 13.2C13.2008 12.8818 13.0744 12.5765 12.8493 12.3515C12.6243 12.1265 12.319 12 12.0008 12C11.6825 12 11.3773 12.1265 11.1523 12.3515C10.9272 12.5765 10.8008 12.8818 10.8008 13.2C10.8008 13.5183 10.9272 13.8235 11.1523 14.0486C11.3773 14.2736 11.6825 14.4 12.0008 14.4ZM13.2008 16.8C13.2008 17.1183 13.0744 17.4235 12.8493 17.6486C12.6243 17.8736 12.319 18 12.0008 18C11.6825 18 11.3773 17.8736 11.1523 17.6486C10.9272 17.4235 10.8008 17.1183 10.8008 16.8C10.8008 16.4818 10.9272 16.1765 11.1523 15.9515C11.3773 15.7265 11.6825 15.6 12.0008 15.6C12.319 15.6 12.6243 15.7265 12.8493 15.9515C13.0744 16.1765 13.2008 16.4818 13.2008 16.8ZM9.00078 4.80002C8.52339 4.80002 8.06555 4.98967 7.72799 5.32723C7.39042 5.6648 7.20078 6.12263 7.20078 6.60002V7.80002C7.20078 8.27741 7.39042 8.73525 7.72799 9.07282C8.06555 9.41038 8.52339 9.60002 9.00078 9.60002H15.0008C15.4782 9.60002 15.936 9.41038 16.2736 9.07282C16.6111 8.73525 16.8008 8.27741 16.8008 7.80002V6.60002C16.8008 6.12263 16.6111 5.6648 16.2736 5.32723C15.936 4.98967 15.4782 4.80002 15.0008 4.80002H9.00078ZM8.40078 6.60002C8.40078 6.44089 8.464 6.28828 8.57652 6.17576C8.68904 6.06324 8.84165 6.00002 9.00078 6.00002H15.0008C15.1599 6.00002 15.3125 6.06324 15.425 6.17576C15.5376 6.28828 15.6008 6.44089 15.6008 6.60002V7.80002C15.6008 7.95915 15.5376 8.11177 15.425 8.22429C15.3125 8.33681 15.1599 8.40002 15.0008 8.40002H9.00078C8.84165 8.40002 8.68904 8.33681 8.57652 8.22429C8.464 8.11177 8.40078 7.95915 8.40078 7.80002V6.60002ZM19.2008 18.6C19.2008 19.3957 18.8847 20.1587 18.3221 20.7213C17.7595 21.284 16.9964 21.6 16.2008 21.6H7.80078C7.00513 21.6 6.24207 21.284 5.67946 20.7213C5.11685 20.1587 4.80078 19.3957 4.80078 18.6V5.40002C4.80078 4.60438 5.11685 3.84131 5.67946 3.2787C6.24207 2.71609 7.00513 2.40002 7.80078 2.40002H16.2008C16.9964 2.40002 17.7595 2.71609 18.3221 3.2787C18.8847 3.84131 19.2008 4.60438 19.2008 5.40002V18.6ZM18.0008 5.40002C18.0008 4.92263 17.8111 4.4648 17.4736 4.12723C17.136 3.78967 16.6782 3.60002 16.2008 3.60002H7.80078C7.32339 3.60002 6.86555 3.78967 6.52799 4.12723C6.19042 4.4648 6.00078 4.92263 6.00078 5.40002V18.6C6.00078 19.0774 6.19042 19.5353 6.52799 19.8728C6.86555 20.2104 7.32339 20.4 7.80078 20.4H16.2008C16.6782 20.4 17.136 20.2104 17.4736 19.8728C17.8111 19.5353 18.0008 19.0774 18.0008 18.6V5.40002Z" fill="currentColor"/>
</symbol><symbol viewBox="0 0 24 24" xml:space="preserve" class="" id="del" xmlns="http://www.w3.org/2000/svg"><g><path d="M19 7a1 1 0 0 0-1 1v11.191A1.92 1.92 0 0 1 15.99 21H8.01A1.92 1.92 0 0 1 6 19.191V8a1 1 0 0 0-2 0v11.191A3.918 3.918 0 0 0 8.01 23h7.98A3.918 3.918 0 0 0 20 19.191V8a1 1 0 0 0-1-1ZM20 4h-4V2a1 1 0 0 0-1-1H9a1 1 0 0 0-1 1v2H4a1 1 0 0 0 0 2h16a1 1 0 0 0 0-2ZM10 4V3h4v1Z" fill="currentColor" opacity="1" data-original="#000000" class=""/><path d="M11 17v-7a1 1 0 0 0-2 0v7a1 1 0 0 0 2 0ZM15 17v-7a1 1 0 0 0-2 0v7a1 1 0 0 0 2 0Z" fill="currentColor" opacity="1" data-original="#000000" class=""/></g></symbol><symbol viewBox="0 0 24 24" fill="none" id="doc" xmlns="http://www.w3.org/2000/svg">
<path d="M15 2.5V4C15 5.414 15 6.121 15.44 6.56C15.878 7 16.585 7 18 7H19.5" stroke="currentColor" stroke-width="1.5" stroke-linecap="round" stroke-linejoin="round"/>
<path d="M8 11H16M8 14H16M8 17H12.17M4 16V8C4 5.172 4 3.757 4.879 2.879C5.757 2 7.172 2 10 2H14.172C14.58 2 14.785 2 14.969 2.076C15.152 2.152 15.297 2.296 15.586 2.586L19.414 6.414C19.704 6.704 19.848 6.848 19.924 7.032C20 7.215 20 7.42 20 7.828V16C20 18.828 20 20.243 19.121 21.121C18.243 22 16.828 22 14 22H10C7.172 22 5.757 22 4.879 21.121C4 20.243 4 18.828 4 16Z" stroke="currentColor" stroke-width="1.5" stroke-linecap="round" stroke-linejoin="round"/>
</symbol><symbol viewBox="0 0 13 16" fill="none" id="loc" xmlns="http://www.w3.org/2000/svg">
<path d="M6.5 3.42861C5.91565 3.42861 5.34441 3.59618 4.85854 3.91013C4.37267 4.22408 3.99398 4.67031 3.77036 5.19239C3.54673 5.71447 3.48822 6.28895 3.60222 6.84318C3.71623 7.39742 3.99762 7.90652 4.41082 8.3061C4.82402 8.70569 5.35047 8.97781 5.9236 9.08805C6.49672 9.19829 7.09078 9.14171 7.63066 8.92546C8.17053 8.70921 8.63196 8.343 8.95661 7.87314C9.28126 7.40328 9.45455 6.85087 9.45455 6.28578C9.45455 5.52801 9.14326 4.80128 8.58918 4.26545C8.03509 3.72963 7.28359 3.42861 6.5 3.42861ZM6.5 8.00008C6.14939 8.00008 5.80665 7.89954 5.51513 7.71117C5.2236 7.5228 4.99639 7.25506 4.86221 6.94181C4.72804 6.62856 4.69293 6.28388 4.76133 5.95133C4.82974 5.61879 4.99857 5.31333 5.24649 5.07358C5.49441 4.83383 5.81028 4.67056 6.15416 4.60441C6.49803 4.53827 6.85447 4.57222 7.17839 4.70197C7.50232 4.83172 7.77918 5.05145 7.97397 5.33336C8.16876 5.61528 8.27273 5.94672 8.27273 6.28578C8.27273 6.74044 8.08596 7.17648 7.75351 7.49797C7.42106 7.81947 6.97016 8.00008 6.5 8.00008ZM6.5 0C4.77669 0.00189054 3.12453 0.664747 1.90596 1.84315C0.687402 3.02155 0.00195497 4.61927 0 6.28578C0 8.52866 1.07176 10.9058 3.10227 13.1608C4.01466 14.1798 5.04153 15.0974 6.16392 15.8966C6.26328 15.9639 6.38164 16 6.50295 16C6.62426 16 6.74263 15.9639 6.84199 15.8966C7.96231 15.0971 8.98719 14.1795 9.89773 13.1608C11.9253 10.9058 13 8.52866 13 6.28578C12.998 4.61927 12.3126 3.02155 11.094 1.84315C9.87547 0.664747 8.22331 0.00189054 6.5 0ZM6.5 14.7144C5.27903 13.7859 1.18182 10.3751 1.18182 6.28578C1.18182 4.92179 1.74212 3.61367 2.73948 2.64919C3.73683 1.68471 5.08953 1.14287 6.5 1.14287C7.91047 1.14287 9.26317 1.68471 10.2605 2.64919C11.2579 3.61367 11.8182 4.92179 11.8182 6.28578C11.8182 10.3737 7.72097 13.7859 6.5 14.7144Z" fill="currentColor"/>
</symbol><symbol viewBox="0 0 36 36" fill="none" id="mail" xmlns="http://www.w3.org/2000/svg">
<path d="M7.5 7.5H27C28.1935 7.5 29.3381 7.97411 30.182 8.81802C31.0259 9.66193 31.5 10.8065 31.5 12V25.5C31.5 26.6935 31.0259 27.8381 30.182 28.682C29.3381 29.5259 28.1935 30 27 30H7.5C6.30653 30 5.16193 29.5259 4.31802 28.682C3.47411 27.8381 3 26.6935 3 25.5V12C3 10.8065 3.47411 9.66193 4.31802 8.81802C5.16193 7.97411 6.30653 7.5 7.5 7.5ZM7.5 9C6.75 9 6.09 9.255 5.58 9.705L17.25 17.25L28.92 9.705C28.41 9.255 27.75 9 27 9H7.5ZM17.25 19.065L4.695 10.92C4.575 11.25 4.5 11.625 4.5 12V25.5C4.5 26.2956 4.81607 27.0587 5.37868 27.6213C5.94129 28.1839 6.70435 28.5 7.5 28.5H27C27.7956 28.5 28.5587 28.1839 29.1213 27.6213C29.6839 27.0587 30 26.2956 30 25.5V12C30 11.625 29.925 11.25 29.805 10.92L17.25 19.065Z" fill="currentColor"/>
</symbol><symbol viewBox="0 0 17 17" fill="none" id="nav" xmlns="http://www.w3.org/2000/svg">
<path d="M13.3 0.5C15.032 0.5 16.5 1.952 16.5 3.7136C16.5 5.5024 15.008 6.7584 13.6296 7.612C13.5292 7.66939 13.4156 7.69958 13.3 7.69958C13.1844 7.69958 13.0707 7.66939 12.9704 7.612C11.5944 6.7512 10.1 5.5096 10.1 3.7136C10.1 1.952 11.568 0.5 13.3 0.5Z" stroke="currentColor"/>
<path d="M13.2992 3.69983H13.3064" stroke="currentColor" stroke-width="2" stroke-linecap="round" stroke-linejoin="round"/>
<path d="M2.9 16.5002C4.22548 16.5002 5.3 15.4257 5.3 14.1002C5.3 12.7747 4.22548 11.7002 2.9 11.7002C1.57452 11.7002 0.5 12.7747 0.5 14.1002C0.5 15.4257 1.57452 16.5002 2.9 16.5002Z" stroke="currentColor" stroke-linecap="round" stroke-linejoin="round"/>
<path d="M7.69922 4.50024H6.49922C4.95282 4.50024 3.69922 5.57464 3.69922 6.90024C3.69922 8.22584 4.95282 9.30024 6.49922 9.30024H8.89922C10.4456 9.30024 11.6992 10.3746 11.6992 11.7002C11.6992 13.0258 10.4456 14.1002 8.89922 14.1002H7.69922" stroke="currentColor" stroke-linecap="round" stroke-linejoin="round"/>
</symbol><symbol viewBox="0 0 24 24" fill="none" id="pdf" xmlns="http://www.w3.org/2000/svg">
<path d="M7.79297 21.25H16.209C17.1372 21.25 18.0275 20.8813 18.6838 20.2249C19.3402 19.5685 19.709 18.6783 19.709 17.75V12.22C19.7093 11.2919 19.341 10.4016 18.685 9.745L12.716 3.775C12.3909 3.45 12.0051 3.19221 11.5804 3.01634C11.1558 2.84047 10.7006 2.74997 10.241 2.75H7.79297C6.86471 2.75 5.97447 3.11875 5.3181 3.77513C4.66172 4.4315 4.29297 5.32174 4.29297 6.25V17.75C4.29297 18.6783 4.66172 19.5685 5.3181 20.2249C5.97447 20.8813 6.86471 21.25 7.79297 21.25Z" stroke="currentColor" stroke-width="1.5" stroke-linecap="round" stroke-linejoin="round"/>
<path d="M11.6895 3.11011V8.77011C11.6895 9.30054 11.9002 9.80925 12.2752 10.1843C12.6503 10.5594 13.159 10.7701 13.6895 10.7701H19.3515" stroke="currentColor" stroke-width="1.5" stroke-linecap="round" stroke-linejoin="round"/>
<path d="M7.25 16.5V15.5M7.25 15.5V13.5H8.25C8.51522 13.5 8.76957 13.6054 8.95711 13.7929C9.14464 13.9804 9.25 14.2348 9.25 14.5C9.25 14.7652 9.14464 15.0196 8.95711 15.2071C8.76957 15.3946 8.51522 15.5 8.25 15.5H7.25ZM15.25 16.5V15.25M15.25 15.25V13.5H16.75M15.25 15.25H16.75M11.25 16.5V13.5H11.75C12.1478 13.5 12.5294 13.658 12.8107 13.9393C13.092 14.2206 13.25 14.6022 13.25 15C13.25 15.3978 13.092 15.7794 12.8107 16.0607C12.5294 16.342 12.1478 16.5 11.75 16.5H11.25Z" stroke="currentColor" stroke-linecap="round" stroke-linejoin="round"/>
</symbol><symbol viewBox="0 0 16 16" fill="none" id="shema" xmlns="http://www.w3.org/2000/svg">
<path d="M12 0C9.8 0 8 1.76111 8 3.91358C8 4.56062 8.25533 5.22071 8.58333 5.9519C8.9305 6.71271 9.31997 7.45435 9.75 8.1735C10.2848 9.07107 10.8548 9.94815 11.4587 10.8028L12 11.5777L12.542 10.8028C12.542 10.8028 13.4013 9.60587 14.25 8.17415C14.6801 7.45479 15.0695 6.71293 15.4167 5.9519C15.7447 5.22071 16 4.56062 16 3.91358C16 1.76111 14.2 0 12 0ZM5.31267 1.26408L0 3.48569V16L5.354 13.738L10.6873 15.6947L16 13.4725V7.78606C15.5867 8.55068 15.1419 9.29857 14.6667 10.0279V12.6167L11.3333 14.0028V12.9428L10.354 11.5568C10.2348 11.3875 10.1168 11.2175 10 11.0467V14.0634L6 12.5958V2.89474L6.72933 3.16021C6.79256 2.72597 6.9115 2.30126 7.08333 1.89613L5.31267 1.26408ZM12 1.30453C13.4793 1.30453 14.6667 2.4662 14.6667 3.91358C14.6667 4.166 14.5053 4.76152 14.208 5.42226C13.9113 6.0817 13.492 6.83115 13.0833 7.52124C12.5393 8.43832 12.3047 8.76445 12 9.21321C11.6953 8.76445 11.4607 8.43832 10.9167 7.52124C10.508 6.83115 10.0887 6.0817 9.79133 5.42161C9.49467 4.76282 9.33333 4.166 9.33333 3.91358C9.33333 2.4662 10.5207 1.30453 12 1.30453ZM4.66667 2.93518V12.6174L1.33333 14.0034V4.34146L4.66667 2.93518ZM12 2.93518C11.7348 2.93518 11.4804 3.03826 11.2929 3.22175C11.1054 3.40523 11 3.65409 11 3.91358C11 4.17306 11.1054 4.42192 11.2929 4.6054C11.4804 4.78889 11.7348 4.89197 12 4.89197C12.2652 4.89197 12.5196 4.78889 12.7071 4.6054C12.8946 4.42192 13 4.17306 13 3.91358C13 3.65409 12.8946 3.40523 12.7071 3.22175C12.5196 3.03826 12.2652 2.93518 12 2.93518Z" fill="currentColor"/>
</symbol><symbol viewBox="0 0 36 36" fill="none" id="tel" xmlns="http://www.w3.org/2000/svg">
<path d="M31.1611 22.5422L24.518 19.5651C24.217 19.4362 23.8886 19.3843 23.5625 19.4143C23.2364 19.4442 22.9229 19.5551 22.6505 19.7367C22.6229 19.7545 22.5966 19.7743 22.5717 19.7958L19.0997 22.7489C19.0637 22.7685 19.0236 22.7795 18.9826 22.781C18.9416 22.7825 18.9008 22.7744 18.8635 22.7573C16.6317 21.6801 14.3199 19.3823 13.2385 17.1816C13.2204 17.1448 13.2111 17.1044 13.2111 17.0634C13.2111 17.0225 13.2204 16.9821 13.2385 16.9453L16.2014 13.4297C16.2227 13.4037 16.2424 13.3765 16.2605 13.3481C16.4396 13.0746 16.5478 12.7608 16.5753 12.435C16.6028 12.1092 16.5487 11.7817 16.418 11.482L13.462 4.85015C13.2942 4.45866 13.0039 4.13217 12.6347 3.91969C12.2655 3.70721 11.8374 3.6202 11.4145 3.67171C9.5769 3.9133 7.89008 4.81575 6.66933 6.21041C5.44858 7.60508 4.77741 9.39653 4.78127 11.25C4.78127 22.2609 13.7391 31.2187 24.75 31.2187C26.6034 31.2223 28.3947 30.551 29.7893 29.3303C31.1839 28.1096 32.0864 26.423 32.3283 24.5855C32.3797 24.1646 32.2939 23.7384 32.0836 23.3702C31.8733 23.0021 31.5497 22.7117 31.1611 22.5422ZM24.75 29.5312C14.67 29.5312 6.46877 21.33 6.46877 11.25C6.46407 9.80708 6.98487 8.41181 7.93386 7.32488C8.88286 6.23795 10.1951 5.53371 11.6255 5.34374H11.6578C11.7145 5.3448 11.7695 5.36295 11.8157 5.39583C11.8619 5.4287 11.897 5.47475 11.9166 5.52796L14.8838 12.1528C14.9007 12.1896 14.9095 12.2297 14.9095 12.2702C14.9095 12.3108 14.9007 12.3508 14.8838 12.3876L11.9152 15.9117C11.8931 15.937 11.8729 15.9637 11.8547 15.9919C11.6689 16.2754 11.5596 16.6022 11.5371 16.9404C11.5147 17.2787 11.58 17.617 11.7267 17.9226C12.9741 20.4764 15.5475 23.0301 18.1294 24.2775C18.4368 24.4234 18.7768 24.4871 19.1161 24.4625C19.4555 24.4378 19.7827 24.3256 20.0658 24.1369C20.0925 24.1186 20.1192 24.0989 20.1445 24.0778L23.6152 21.1247C23.6494 21.1063 23.6873 21.0955 23.7261 21.093C23.765 21.0906 23.8039 21.0966 23.8402 21.1106L30.4847 24.0876C30.539 24.1108 30.5846 24.1504 30.6151 24.2008C30.6457 24.2513 30.6596 24.3101 30.6549 24.3689C30.4659 25.7999 29.7623 27.1132 28.6756 28.0632C27.5889 29.0133 26.1935 29.5351 24.75 29.5312Z" fill="currentColor"/>
</symbol><symbol viewBox="0 0 25 24" fill="none" id="tg" xmlns="http://www.w3.org/2000/svg">
<g clip-path="url(#kclip0_0_2933)">
<path d="M1.22957 11.5718L6.75965 13.6358L8.90013 20.5196C9.03709 20.9604 9.57621 21.1234 9.93405 20.8308L13.0166 18.3179C13.3397 18.0546 13.8 18.0415 14.1376 18.2866L19.6975 22.3232C20.0803 22.6014 20.6226 22.3916 20.7186 21.9291L24.7915 2.3378C24.8963 1.83252 24.3998 1.411 23.9187 1.59708L1.22309 10.3524C0.663015 10.5684 0.667895 11.3613 1.22957 11.5718ZM8.55517 12.5371L19.363 5.88052C19.5572 5.76124 19.7571 6.02388 19.5903 6.1786L10.6707 14.4698C10.3572 14.7616 10.1549 15.1522 10.0977 15.5761L9.79381 17.8278C9.75357 18.1284 9.33125 18.1583 9.24829 17.8673L8.07973 13.7613C7.94589 13.293 8.14093 12.7928 8.55517 12.5371Z" fill="currentColor"/>
</g>
<defs>
<clipPath id="kclip0_0_2933">
<rect width="24" height="24" fill="currentColor" transform="translate(0.805664)"/>
</clipPath>
</defs>
</symbol><symbol viewBox="0 0 24 24" fill="none" id="truck" xmlns="http://www.w3.org/2000/svg">
<path d="M17 20C18.1046 20 19 19.1046 19 18C19 16.8954 18.1046 16 17 16C15.8954 16 15 16.8954 15 18C15 19.1046 15.8954 20 17 20Z" stroke="currentColor" stroke-width="1.5" stroke-linecap="round" stroke-linejoin="round"/>
<path d="M7 20C8.10457 20 9 19.1046 9 18C9 16.8954 8.10457 16 7 16C5.89543 16 5 16.8954 5 18C5 19.1046 5.89543 20 7 20Z" stroke="currentColor" stroke-width="1.5" stroke-linecap="round" stroke-linejoin="round"/>
<path d="M11 17H15M13.5 7H14.443C15.753 7 16.409 7 16.964 7.315C17.52 7.629 17.89 8.21 18.631 9.371C19.151 10.185 19.695 10.777 20.462 11.302C21.234 11.832 21.602 12.091 21.805 12.506C22 12.904 22 13.375 22 14.317C22 15.56 22 16.181 21.651 16.576L21.605 16.625C21.238 17 20.659 17 19.503 17H19" stroke="currentColor" stroke-width="1.5" stroke-linecap="round" stroke-linejoin="round"/>
<path d="M13 7L13.994 9.486C14.481 10.703 14.724 11.312 15.233 11.656C15.741 12 16.396 12 17.708 12H21M13 7C13 5.585 13 4.878 12.58 4.44C12.16 4 11.483 4 10.13 4H4.87C3.517 4 2.84 4.001 2.42 4.44C2 4.879 2 5.586 2 7V14C2 15.415 2 16.122 2.42 16.56C2.84 17 3.517 17 4.87 17M13 7V17H8.696" stroke="currentColor" stroke-width="1.5" stroke-linecap="round" stroke-linejoin="round"/>
</symbol><symbol viewBox="0 0 25 16" fill="none" id="vk" xmlns="http://www.w3.org/2000/svg">
<path d="M23.7622 11.9704C23.2397 11.3292 22.6459 10.7545 22.0716 10.1987C21.8674 10.0011 21.6563 9.79671 21.4528 9.5935C20.8684 9.00949 20.8472 8.79008 21.3098 8.12671C21.6299 7.66945 21.9692 7.21159 22.2974 6.76878C22.5951 6.36703 22.9029 5.95158 23.198 5.53477L23.2585 5.44907C23.8224 4.65146 24.4056 3.82669 24.716 2.83174C24.7966 2.56925 24.8812 2.18296 24.6877 1.85996C24.4943 1.53723 24.1192 1.43876 23.8539 1.39277C23.7226 1.37002 23.5923 1.36691 23.4713 1.36691L19.7784 1.36421L19.7479 1.36394C19.1896 1.36394 18.8133 1.63292 18.5977 2.18634C18.3918 2.71512 18.1657 3.2782 17.9077 3.81359C17.3942 4.87971 16.742 6.10765 15.7983 7.13176L15.7584 7.17532C15.647 7.29776 15.5207 7.4364 15.4285 7.4364C15.4143 7.4364 15.3989 7.43363 15.3815 7.42803C15.186 7.35016 15.0548 6.86643 15.0608 6.64142C15.0608 6.63831 15.0609 6.6352 15.0609 6.6321L15.0583 2.26887C15.0583 2.25374 15.0573 2.23875 15.0553 2.22375C14.9614 1.51447 14.7533 1.07294 13.9671 0.915527C13.9462 0.911273 13.9248 0.90918 13.9036 0.90918H10.0637C9.43812 0.90918 9.09341 1.16911 8.76938 1.55816C8.68192 1.66216 8.49985 1.87867 8.59009 2.1413C8.68165 2.40785 8.97886 2.46484 9.07564 2.48335C9.55604 2.57681 9.82682 2.87719 9.90351 3.40205C10.0374 4.31346 10.0539 5.28625 9.95531 6.46354C9.92783 6.79073 9.87346 7.04343 9.78388 7.25933C9.76307 7.30971 9.68928 7.47415 9.61404 7.47422C9.59012 7.47422 9.52096 7.46463 9.39498 7.37589C9.09711 7.16729 8.87917 6.86961 8.6251 6.50189C7.76076 5.25316 7.03535 3.87754 6.40711 2.29547C6.17411 1.71308 5.73897 1.38703 5.18128 1.37745C4.5685 1.36792 4.01293 1.36333 3.48305 1.36333C2.90409 1.36333 2.36735 1.3688 1.84322 1.37994C1.39453 1.38805 1.08418 1.52554 0.920877 1.78892C0.75731 2.05249 0.767946 2.39873 0.95252 2.81783C2.43004 6.17572 3.76969 8.61719 5.29636 10.7345C6.36608 12.216 7.43905 13.2414 8.67267 13.9614C9.97235 14.7215 11.4289 15.091 13.1253 15.091C13.3176 15.091 13.5165 15.0862 13.717 15.0766C14.7027 15.0275 15.0684 14.6628 15.1147 13.6816C15.1367 13.1802 15.1903 12.6543 15.4314 12.2058C15.5836 11.9233 15.7255 11.9233 15.7722 11.9233C15.862 11.9233 15.9734 11.9656 16.093 12.0448C16.3076 12.1879 16.4916 12.3797 16.6424 12.5473C16.7844 12.7064 16.9247 12.8672 17.0653 13.0281C17.3685 13.3753 17.682 13.7342 18.0095 14.0746C18.7264 14.8203 19.5162 15.1482 20.4233 15.077H23.809C23.8162 15.077 23.8235 15.0767 23.8307 15.0763C24.1681 15.0535 24.4602 14.8622 24.6323 14.5514C24.8455 14.1664 24.8412 13.6753 24.6208 13.2372C24.3708 12.742 24.0464 12.3188 23.7622 11.9704Z" fill="currentColor"/>
</symbol><symbol viewBox="0 0 24 24" fill="none" id="wa" xmlns="http://www.w3.org/2000/svg">
<path d="M11.3213 0.0138862C4.98281 0.315419 -0.019044 5.59418 5.45098e-05 11.9397C0.00589385 13.8723 0.472492 15.6965 1.29571 17.3087L0.0319793 23.4429C-0.036346 23.7747 0.262924 24.0652 0.592556 23.9872L6.60332 22.5631C8.1476 23.3326 9.8821 23.7766 11.7179 23.8047C18.1963 23.9037 23.5981 18.7597 23.8002 12.2837C24.0165 5.34173 18.2873 -0.317958 11.3213 0.0138862ZM18.4935 18.4932C16.7333 20.2535 14.3927 21.2229 11.9031 21.2229C10.4456 21.2229 9.04978 20.8958 7.75498 20.251L6.91809 19.8339L3.23259 20.7068L4.00827 16.9414L3.59602 16.1337C2.92375 14.8173 2.58291 13.3939 2.58291 11.9028C2.58291 9.41313 3.5524 7.07277 5.31262 5.3124C7.05716 3.5677 9.43591 2.58268 11.9032 2.58268C14.3925 2.58268 16.7333 3.55218 18.4934 5.3124C20.2537 7.0726 21.2231 9.41329 21.2231 11.9024C21.2232 14.3701 20.238 16.7486 18.4935 18.4932Z" fill="currentColor"/>
<path d="M17.6793 14.4842L15.3735 13.8223C15.0707 13.7354 14.7441 13.8214 14.5232 14.0464L13.9592 14.6208C13.7216 14.8632 13.361 14.9409 13.0462 14.8136C11.9555 14.3721 9.66106 12.3322 9.07546 11.312C8.90627 11.0176 8.93422 10.6497 9.14184 10.3809L9.63394 9.74422C9.82692 9.49484 9.86751 9.15946 9.74008 8.87115L8.77001 6.67725C8.53777 6.15185 7.86617 5.99881 7.4275 6.36986C6.78406 6.9142 6.02057 7.74106 5.92787 8.65737C5.7642 10.2728 6.4571 12.309 9.07662 14.7542C12.1031 17.5793 14.5268 17.9522 16.105 17.5701C17.0002 17.3533 17.7155 16.4844 18.1665 15.7727C18.4746 15.2871 18.2312 14.6428 17.6793 14.4842Z" fill="currentColor"/>
<path d="M20.027 3.20312L18.2218 5.05343C18.3136 5.13831 18.4051 5.22369 18.494 5.31264C20.2542 7.07286 21.2236 9.41346 21.2236 11.9027C21.2236 14.3702 20.2386 16.7487 18.494 18.4934C16.7338 20.2537 14.3931 21.2231 11.9037 21.2231C10.446 21.2231 9.05036 20.896 7.75539 20.2512L6.9186 19.8341L3.23311 20.707L3.30931 20.3372L0.0458984 23.6817C0.117867 23.898 0.346865 24.0452 0.592916 23.987L6.60366 22.563C8.14801 23.3324 9.88251 23.7766 11.7182 23.8045C18.1967 23.9035 23.5986 18.7596 23.8006 12.2835C23.9124 8.69843 22.4381 5.45545 20.027 3.20312Z" fill="currentColor"/>
<path d="M17.6792 14.4837L15.3735 13.8217C15.0706 13.7349 14.744 13.8209 14.5231 14.046L13.9593 14.6203C13.7215 14.8627 13.3609 14.9403 13.0461 14.8131C12.4161 14.558 11.385 13.7696 10.5129 12.9526L8.91016 14.5955C8.96506 14.648 9.01996 14.7006 9.07669 14.7537C12.1032 17.5789 14.5267 17.9517 16.105 17.5695C17.0002 17.3529 17.7154 16.4839 18.1666 15.7722C18.4745 15.2867 18.2311 14.6424 17.6792 14.4837Z" fill="currentColor"/>
</symbol><symbol viewBox="0 0 17 17" fill="none" id="work" xmlns="http://www.w3.org/2000/svg">
<path d="M16.5 8.5C16.5 10.6217 15.6571 12.6566 14.1569 14.1569C12.6566 15.6571 10.6217 16.5 8.5 16.5C6.37827 16.5 4.34344 15.6571 2.84315 14.1569C1.34285 12.6566 0.5 10.6217 0.5 8.5C0.5 6.37827 1.34285 4.34344 2.84315 2.84315C4.34344 1.34285 6.37827 0.5 8.5 0.5C10.6217 0.5 12.6566 1.34285 14.1569 2.84315C15.6571 4.34344 16.5 6.37827 16.5 8.5Z" stroke="currentColor" stroke-linecap="round" stroke-linejoin="round"/>
<path d="M7.85138 3.95947V9.14866H11.3108" stroke="currentColor" stroke-linecap="round" stroke-linejoin="round"/>
</symbol></svg>