<svg aria-hidden="true" xmlns="http://www.w3.org/2000/svg" xmlns:xlink="http://www.w3.org/1999/xlink"><symbol fill="none" viewBox="0 0 24 24" id="book-broken" xmlns="http://www.w3.org/2000/svg"><path d="M19.898 16h-12c-.93 0-1.395 0-1.777.102A3 3 0 0 0 4 18.224" stroke="currentColor" stroke-width="1.5"/><path d="M8 7h8m-8 3.5h5M10 22c-2.828 0-4.243 0-5.121-.879C4 20.243 4 18.828 4 16V8c0-2.828 0-4.243.879-5.121C5.757 2 7.172 2 10 2h4c2.828 0 4.243 0 5.121.879C20 3.757 20 5.172 20 8m-6 14c2.828 0 4.243 0 5.121-.879C20 20.243 20 18.828 20 16v-4" stroke="currentColor" stroke-width="1.5" stroke-linecap="round"/></symbol><symbol fill="none" viewBox="0 0 24 24" id="calc" xmlns="http://www.w3.org/2000/svg"><path d="M9.6 13.2a1.2 1.2 0 1 1-2.4 0 1.2 1.2 0 0 1 2.4 0Zm0 3.6a1.2 1.2 0 1 1-2.4 0 1.2 1.2 0 0 1 2.4 0Zm6-2.4a1.2 1.2 0 1 0 0-2.4 1.2 1.2 0 0 0 0 2.4Zm1.2 2.4a1.2 1.2 0 1 1-2.4 0 1.2 1.2 0 0 1 2.4 0ZM12 14.4a1.2 1.2 0 1 0 0-2.4 1.2 1.2 0 0 0 0 2.4Zm1.2 2.4a1.2 1.2 0 1 1-2.4 0 1.2 1.2 0 0 1 2.4 0ZM9 4.8a1.8 1.8 0 0 0-1.8 1.8v1.2A1.8 1.8 0 0 0 9 9.6h6a1.8 1.8 0 0 0 1.8-1.8V6.6A1.8 1.8 0 0 0 15 4.8H9Zm-.6 1.8A.6.6 0 0 1 9 6h6a.6.6 0 0 1 .6.6v1.2a.6.6 0 0 1-.6.6H9a.6.6 0 0 1-.6-.6V6.6Zm10.8 12a3 3 0 0 1-3 3H7.8a3 3 0 0 1-3-3V5.4a3 3 0 0 1 3-3h8.4a3 3 0 0 1 3 3v13.2ZM18 5.4a1.8 1.8 0 0 0-1.8-1.8H7.8A1.8 1.8 0 0 0 6 5.4v13.2a1.8 1.8 0 0 0 1.8 1.8h8.4a1.8 1.8 0 0 0 1.8-1.8V5.4Z" fill="currentColor"/></symbol><symbol fill="none" viewBox="0 0 24 24" id="doc" xmlns="http://www.w3.org/2000/svg"><path d="M15 2.5V4c0 1.414 0 2.121.44 2.56C15.878 7 16.585 7 18 7h1.5" stroke="currentColor" stroke-width="1.5" stroke-linecap="round" stroke-linejoin="round"/><path d="M8 11h8m-8 3h8m-8 3h4.17M4 16V8c0-2.828 0-4.243.879-5.121C5.757 2 7.172 2 10 2h4.172c.408 0 .613 0 .797.076.183.076.328.22.617.51l3.828 3.828c.29.29.434.434.51.618.076.183.076.388.076.796V16c0 2.828 0 4.243-.879 5.121C18.243 22 16.828 22 14 22h-4c-2.828 0-4.243 0-5.121-.879C4 20.243 4 18.828 4 16Z" stroke="currentColor" stroke-width="1.5" stroke-linecap="round" stroke-linejoin="round"/></symbol><symbol fill="none" viewBox="0 0 24 24" id="pdf" xmlns="http://www.w3.org/2000/svg"><path d="M7.793 21.25h8.416a3.5 3.5 0 0 0 3.5-3.5v-5.53a3.5 3.5 0 0 0-1.024-2.475l-5.969-5.97a3.5 3.5 0 0 0-2.475-1.025H7.793a3.5 3.5 0 0 0-3.5 3.5v11.5a3.5 3.5 0 0 0 3.5 3.5Z" stroke="currentColor" stroke-width="1.5" stroke-linecap="round" stroke-linejoin="round"/><path d="M11.69 3.11v5.66a2 2 0 0 0 2 2h5.662" stroke="currentColor" stroke-width="1.5" stroke-linecap="round" stroke-linejoin="round"/><path d="M7.25 16.5v-1m0 0v-2h1a1 1 0 0 1 0 2h-1Zm8 1v-1.25m0 0V13.5h1.5m-1.5 1.75h1.5m-5.5 1.25v-3h.5a1.5 1.5 0 1 1 0 3h-.5Z" stroke="currentColor" stroke-linecap="round" stroke-linejoin="round"/></symbol><symbol fill="none" viewBox="0 0 25 24" id="tg" xmlns="http://www.w3.org/2000/svg"><g clip-path="url(#ea)"><path d="m1.23 11.572 5.53 2.064L8.9 20.52a.651.651 0 0 0 1.034.31l3.083-2.512a.92.92 0 0 1 1.12-.031l5.56 4.036a.652.652 0 0 0 1.022-.394L24.79 2.338a.652.652 0 0 0-.872-.74L1.223 10.351a.652.652 0 0 0 .007 1.22Zm7.325.965 10.808-6.656c.194-.12.394.143.227.298l-8.92 8.29a1.849 1.849 0 0 0-.572 1.107l-.304 2.252c-.04.3-.463.33-.546.04L8.08 13.76a1.088 1.088 0 0 1 .475-1.224Z" fill="currentColor"/></g><defs><clipPath id="ea"><path fill="currentColor" transform="translate(.806)" d="M0 0h24v24H0z"/></clipPath></defs></symbol><symbol fill="none" viewBox="0 0 24 24" id="truck" xmlns="http://www.w3.org/2000/svg"><path d="M17 20a2 2 0 1 0 0-4 2 2 0 0 0 0 4ZM7 20a2 2 0 1 0 0-4 2 2 0 0 0 0 4ZM11 17h4M13.5 7h.943c1.31 0 1.966 0 2.521.315.556.314.926.895 1.667 2.056.52.814 1.064 1.406 1.831 1.931.772.53 1.14.789 1.343 1.204.195.398.195.869.195 1.811 0 1.243 0 1.864-.349 2.259l-.046.049c-.367.375-.946.375-2.102.375H19" stroke="currentColor" stroke-width="1.5" stroke-linecap="round" stroke-linejoin="round"/><path d="m13 7 .994 2.486c.487 1.217.73 1.826 1.239 2.17.508.344 1.163.344 2.475.344H21m-8-5c0-1.415 0-2.122-.42-2.56C12.16 4 11.483 4 10.13 4H4.87c-1.353 0-2.03.001-2.45.44C2 4.879 2 5.586 2 7v7c0 1.415 0 2.122.42 2.56.42.44 1.097.44 2.45.44M13 7v10H8.696" stroke="currentColor" stroke-width="1.5" stroke-linecap="round" stroke-linejoin="round"/></symbol><symbol fill="none" viewBox="0 0 25 16" id="vk" xmlns="http://www.w3.org/2000/svg"><path d="M23.762 11.97c-.522-.64-1.116-1.216-1.69-1.771a55.493 55.493 0 0 1-.62-.605c-.584-.585-.605-.804-.142-1.467.32-.458.66-.915.987-1.358.298-.402.606-.817.901-1.234l.06-.086c.564-.798 1.148-1.622 1.458-2.617.08-.263.165-.649-.028-.972-.194-.323-.569-.421-.834-.467a2.23 2.23 0 0 0-.383-.026l-3.693-.003h-.03c-.558 0-.935.269-1.15.822a22.95 22.95 0 0 1-.69 1.628c-.514 1.066-1.166 2.294-2.11 3.318l-.04.043c-.111.123-.237.261-.33.261a.154.154 0 0 1-.046-.008c-.196-.078-.327-.562-.321-.787v-.009l-.003-4.363a.34.34 0 0 0-.003-.045c-.094-.71-.302-1.151-1.088-1.308a.32.32 0 0 0-.063-.007h-3.84c-.626 0-.97.26-1.295.65-.087.103-.27.32-.179.582.092.267.389.324.486.342.48.094.75.394.828.919.133.911.15 1.884.051 3.062a2.62 2.62 0 0 1-.171.795c-.02.05-.095.215-.17.215-.024 0-.093-.01-.219-.098-.298-.209-.516-.506-.77-.874-.864-1.249-1.59-2.624-2.218-4.207-.233-.582-.668-.908-1.226-.918-.612-.01-1.168-.014-1.698-.014-.579 0-1.116.006-1.64.017-.448.008-.759.146-.922.409-.164.263-.153.61.032 1.029 1.477 3.358 2.817 5.8 4.343 7.917 1.07 1.481 2.143 2.506 3.377 3.226 1.3.76 2.756 1.13 4.452 1.13.193 0 .392-.005.592-.014.986-.05 1.351-.414 1.398-1.395.022-.502.075-1.028.316-1.476.153-.283.295-.283.341-.283a.62.62 0 0 1 .321.122c.215.143.399.335.55.502l.422.481c.303.347.617.706.944 1.047.717.745 1.507 1.073 2.414 1.002h3.408a.985.985 0 0 0 .801-.526c.213-.385.21-.876-.011-1.314-.25-.495-.575-.918-.859-1.267Z" fill="currentColor"/></symbol><symbol fill="none" viewBox="0 0 24 24" id="wa" xmlns="http://www.w3.org/2000/svg"><path d="M11.321.014C4.983.315-.019 5.594.001 11.94a11.851 11.851 0 0 0 1.295 5.369L.032 23.443a.463.463 0 0 0 .56.544l6.011-1.424a11.844 11.844 0 0 0 5.115 1.242c6.478.099 11.88-5.045 12.082-11.521.216-6.942-5.513-12.602-12.479-12.27Zm7.173 18.48a9.259 9.259 0 0 1-6.59 2.729 9.224 9.224 0 0 1-4.149-.972l-.837-.417-3.685.873.775-3.766-.412-.807a9.215 9.215 0 0 1-1.013-4.231c0-2.49.97-4.83 2.73-6.59a9.336 9.336 0 0 1 6.59-2.73c2.49 0 4.83.97 6.59 2.73a9.259 9.259 0 0 1 2.73 6.59 9.336 9.336 0 0 1-2.73 6.59Z" fill="currentColor"/><path d="m17.68 14.484-2.306-.662a.86.86 0 0 0-.85.224l-.565.575a.84.84 0 0 1-.913.193c-1.09-.442-3.385-2.482-3.97-3.502a.84.84 0 0 1 .066-.931l.492-.637a.86.86 0 0 0 .106-.873l-.97-2.194a.86.86 0 0 0-1.342-.307c-.644.544-1.407 1.371-1.5 2.287-.164 1.616.53 3.652 3.149 6.097 3.026 2.825 5.45 3.198 7.028 2.816.895-.217 1.61-1.086 2.061-1.797a.86.86 0 0 0-.487-1.289Z" fill="currentColor"/><path d="m20.027 3.203-1.805 1.85a9.26 9.26 0 0 1 3.002 6.85 9.337 9.337 0 0 1-2.73 6.59 9.259 9.259 0 0 1-6.59 2.73 9.225 9.225 0 0 1-4.149-.972l-.836-.417-3.686.873.076-.37-3.263 3.345a.464.464 0 0 0 .547.305l6.01-1.424a11.843 11.843 0 0 0 5.115 1.242c6.479.099 11.88-5.045 12.083-11.521a11.873 11.873 0 0 0-3.774-9.08Z" fill="currentColor"/><path d="m17.68 14.484-2.306-.662a.86.86 0 0 0-.85.224l-.565.574a.84.84 0 0 1-.913.193c-.63-.255-1.661-1.043-2.533-1.86L8.91 14.596l.167.158c3.026 2.825 5.45 3.198 7.028 2.816.895-.217 1.61-1.086 2.062-1.798a.86.86 0 0 0-.488-1.288Z" fill="currentColor"/></symbol></svg>