<svg width="12" height="10" viewBox="0 0 12 10" fill="none" xmlns="http://www.w3.org/2000/svg">
<path d="M11.5173 4.16072L9.07718 6.40237L9.65343 9.56843C9.6785 9.70687 9.61817 9.84679 9.49752 9.92949C9.42936 9.97637 9.34826 10 9.26717 10C9.20489 10 9.14221 9.98597 9.08502 9.95754L6.06783 8.46275L3.05103 9.95718C2.91941 10.0229 2.75919 10.0122 2.63853 9.92912C2.51787 9.84642 2.45755 9.7065 2.48262 9.56806L3.05887 6.402L0.618324 4.16072C0.511771 4.06252 0.472989 3.91559 0.519214 3.78231C0.565439 3.64904 0.688054 3.55121 0.83574 3.5309L4.20824 3.06943L5.71644 0.189111C5.84845 -0.063037 6.2872 -0.063037 6.41922 0.189111L7.92742 3.06943L11.2999 3.5309C11.4476 3.55121 11.5702 3.64867 11.6164 3.78231C11.6627 3.91596 11.6239 4.06215 11.5173 4.16072Z" fill="#C52978"/>
</svg>
