<svg width="36" height="36" viewBox="0 0 36 36" fill="none" xmlns="http://www.w3.org/2000/svg">
<g clip-path="url(#clip0_1_586)">
<path d="M18 0C13.2272 0 8.64563 1.89759 5.27344 5.27203C1.8978 8.64783 0.000965949 13.226 0 18C0 22.772 1.89844 27.3535 5.27344 30.728C8.64563 34.1024 13.2272 36 18 36C22.7728 36 27.3544 34.1024 30.7266 30.728C34.1016 27.3535 36 22.772 36 18C36 13.228 34.1016 8.64647 30.7266 5.27203C27.3544 1.89759 22.7728 0 18 0Z" fill="url(#paint0_linear_1_586)"/>
<path d="M8.14777 17.8099C13.3959 15.5239 16.8946 14.0168 18.644 13.2885C23.6446 11.2092 24.6825 10.8481 25.3603 10.8359C25.5093 10.8335 25.8412 10.8703 26.0578 11.0454C26.2378 11.193 26.2884 11.3927 26.3137 11.5329C26.3362 11.673 26.3671 11.9922 26.3418 12.2414C26.0718 15.0877 24.899 21.9946 24.3028 25.1826C24.0525 26.5314 23.5546 26.9837 23.0737 27.0278C22.0275 27.124 21.2343 26.3371 20.2218 25.6736C18.6384 24.635 17.744 23.9887 16.2056 22.9753C14.4281 21.8042 15.5812 21.1604 16.5937 20.1085C16.8581 19.8332 21.465 15.644 21.5521 15.264C21.5634 15.2165 21.5746 15.0393 21.4678 14.9459C21.3637 14.8523 21.209 14.8843 21.0965 14.9096C20.9362 14.9456 18.4078 16.6185 13.5028 19.928C12.7856 20.4213 12.1359 20.6618 11.5509 20.6491C10.9096 20.6353 9.67214 20.2857 8.75245 19.987C7.62745 19.6206 6.73027 19.4268 6.80902 18.8044C6.84839 18.4804 7.29558 18.1488 8.14777 17.8099Z" fill="white"/>
</g>
<defs>
<linearGradient id="paint0_linear_1_586" x1="1800" y1="0" x2="1800" y2="3600" gradientUnits="userSpaceOnUse">
<stop stop-color="#2AABEE"/>
<stop offset="1" stop-color="#229ED9"/>
</linearGradient>
<clipPath id="clip0_1_586">
<rect width="36" height="36" fill="white"/>
</clipPath>
</defs>
</svg>
