<svg width="36" height="36" viewBox="0 0 36 36" fill="none" xmlns="http://www.w3.org/2000/svg">
<g clip-path="url(#clip0_1_580)">
<path d="M14.2335 0.00599536L15.327 0.00149536H20.673L21.768 0.00599536L23.139 0.0209954L23.7885 0.0314954L24.4155 0.0479954L25.02 0.0689954L25.602 0.0929954L26.163 0.124495L26.703 0.161995L27.2205 0.206995L27.72 0.256495C30.33 0.550495 32.1195 1.1805 33.4695 2.5305C34.8195 3.8805 35.4495 5.6685 35.7435 8.27999L35.7945 8.7795L35.838 9.2985L35.8755 9.8385L35.9055 10.398L35.943 11.28L35.961 11.895L35.9805 12.861L35.994 14.2335L36 15.7035L35.9985 20.673L35.994 21.768L35.979 23.139L35.9685 23.7885L35.952 24.4155L35.931 25.02L35.907 25.602L35.8755 26.163L35.838 26.703L35.793 27.2205L35.7435 27.72C35.4495 30.33 34.8195 32.1195 33.4695 33.4695C32.1195 34.8195 30.3315 35.4495 27.72 35.7435L27.2205 35.7945L26.7015 35.838L26.1615 35.8755L25.602 35.9055L24.72 35.943L24.105 35.961L23.139 35.9805L21.7665 35.994L20.2965 36L15.327 35.9985L14.232 35.994L12.861 35.979L12.2115 35.9685L11.5845 35.952L10.98 35.931L10.398 35.907L9.837 35.8755L9.297 35.838L8.7795 35.793L8.28 35.7435C5.67 35.4495 3.8805 34.8195 2.5305 33.4695C1.1805 32.1195 0.5505 30.3315 0.2565 27.72L0.2055 27.2205L0.162 26.7015L0.1245 26.1615L0.0945 25.602L0.057 24.72L0.039 24.105L0.0195 23.139L0.006 21.7665L0 20.2965L0.0015 15.327L0.006 14.232L0.021 12.861L0.0315 12.2115L0.048 11.5845L0.069 10.98L0.093 10.398L0.1245 9.837L0.162 9.297L0.207 8.7795L0.2565 8.27999C0.5505 5.67 1.1805 3.8805 2.5305 2.5305C3.8805 1.1805 5.6685 0.550495 8.28 0.256495L8.7795 0.205495L9.2985 0.161995L9.8385 0.124495L10.398 0.0944954L11.28 0.0569954L11.895 0.0389954L12.861 0.0194954L14.2335 0.00599536ZM10.185 10.95H6.075C6.27 20.31 10.95 25.935 19.155 25.935H19.62V20.58C22.635 20.88 24.915 23.085 25.83 25.935H30.09C28.92 21.675 25.845 19.32 23.925 18.42C25.845 17.31 28.545 14.61 29.19 10.95H25.32C24.48 13.92 21.99 16.62 19.62 16.875V10.95H15.75V21.33C13.35 20.73 10.32 17.82 10.185 10.95Z" fill="#4A5F9D"/>
</g>
<defs>
<clipPath id="clip0_1_580">
<rect width="36" height="36" fill="white"/>
</clipPath>
</defs>
</svg>
