<svg width="36" height="36" viewBox="0 0 36 36" fill="none" xmlns="http://www.w3.org/2000/svg">
<rect width="36" height="36" stroke="white"/>
<path d="M18.0015 2C26.8382 2 34.0015 9.16322 34.0015 18C34.0015 26.8368 26.8382 34 18.0015 34V33.999C15.3156 34.0034 12.6751 33.3285 10.3237 32.04L3.271 33.9648L1.5835 34.4248L2.04248 32.7373L3.9624 25.6797C2.67305 23.3273 1.99676 20.6853 2.00146 17.998C2.00252 9.16217 9.16534 2.00001 18.0015 2ZM12.9292 11.9492L12.6577 11.959C12.6016 11.9629 12.5471 11.9779 12.4956 12C12.4279 12.0417 12.3653 12.0912 12.3101 12.1484L12.2935 12.166L12.2759 12.1816C12.2225 12.2319 12.1851 12.2744 12.144 12.3252L11.9917 12.5225C11.6248 12.9995 11.4056 13.5717 11.3589 14.168L11.3501 14.4248V14.4258C11.3524 14.9879 11.4988 15.5636 11.7554 16.1367L11.9819 16.6006C12.5503 17.6948 13.4032 18.8546 14.5063 19.9541H14.5054C14.8387 20.2859 15.1262 20.5778 15.436 20.8506C16.9625 22.1944 18.7791 23.166 20.7437 23.6904L21.481 23.8037C21.6782 23.8113 21.8753 23.7966 22.1724 23.7822C22.4621 23.7664 22.7452 23.6879 23.0015 23.5518L23.0112 23.5469C23.1771 23.4611 23.3387 23.3673 23.4966 23.2676C23.5011 23.2644 23.5075 23.2606 23.5142 23.2559C23.5397 23.2378 23.5805 23.2084 23.6362 23.167L23.6372 23.166C23.8018 23.0441 23.8826 22.9749 24.0054 22.8467L24.0093 22.8418C24.0565 22.793 24.1005 22.7319 24.1401 22.6523C24.1922 22.543 24.2903 22.1973 24.3315 21.8652L24.3354 21.7998L23.7778 21.5498V21.5488C23.7764 21.5482 23.7747 21.5476 23.7729 21.5469C23.7631 21.5426 23.7486 21.5364 23.73 21.5283C23.6926 21.512 23.6383 21.4885 23.5708 21.459C23.4355 21.3998 23.2465 21.3167 23.0327 21.2227C22.6583 21.0579 22.204 20.8558 21.8247 20.6846C21.8214 20.6883 21.8184 20.6924 21.8149 20.6963C21.6627 20.8708 21.3734 21.2119 20.8325 21.8672L20.8315 21.8662C20.6537 22.0896 20.4178 22.2601 20.1479 22.3555C19.8625 22.4563 19.5534 22.4699 19.2603 22.3945L19.2515 22.3926C19.1095 22.3547 18.9707 22.3056 18.8354 22.248V22.249C18.674 22.1813 18.5319 22.1187 18.4546 22.0859L18.4448 22.082C17.488 21.6652 16.6022 21.1009 15.8198 20.4102V20.4092C15.6084 20.2242 15.3958 20.0086 15.2456 19.8633C14.5933 19.2385 14.0248 18.5318 13.5542 17.7607V17.7598L13.4692 17.625L13.4702 17.624C13.371 17.4686 13.2878 17.3033 13.2251 17.1299L13.2095 17.085L13.1978 17.04C13.0978 16.6533 13.1844 16.3234 13.2681 16.123C13.3109 16.0206 13.3582 15.9376 13.397 15.8779C13.4166 15.8478 13.4348 15.8219 13.4507 15.8008C13.4587 15.7901 13.4664 15.78 13.4731 15.7715C13.4765 15.7673 13.4799 15.7635 13.4829 15.7598C13.4844 15.7579 13.4854 15.7556 13.4868 15.7539C13.4875 15.753 13.4891 15.7528 13.4897 15.752L13.4907 15.75L13.4917 15.749L13.519 15.7178C13.5196 15.7172 13.5217 15.7152 13.5229 15.7139C13.5254 15.7112 13.529 15.7073 13.5337 15.7021C13.5433 15.6915 13.5572 15.6757 13.5747 15.6562C13.61 15.6171 13.6588 15.5624 13.7124 15.502C13.825 15.3749 13.9402 15.241 14.0044 15.1592H14.0054C14.1476 14.9782 14.2654 14.8047 14.3354 14.6914L14.3364 14.6895C14.3412 14.6817 14.3435 14.6735 14.3472 14.667C13.9747 13.76 13.5913 12.8573 13.1968 11.959C13.1727 11.9567 13.1486 11.954 13.1245 11.9521C13.0591 11.9486 12.9937 11.9472 12.9282 11.9473L12.9292 11.9492Z" fill="#3EBD30" stroke="white" stroke-width="2"/>
</svg>
