<svg width="66" height="60" viewBox="0 0 66 60" fill="none" xmlns="http://www.w3.org/2000/svg">
<path d="M59.8678 23.4265H6.03463C3.25409 23.4265 1 25.6806 1 28.4611V53.1951C1 55.9756 3.25409 58.2297 6.03463 58.2297H59.8678C62.6484 58.2297 64.9024 55.9756 64.9024 53.1951V28.4611C64.9024 25.6806 62.6484 23.4265 59.8678 23.4265Z" stroke="white" stroke-width="2" stroke-linecap="round" stroke-linejoin="round"/>
<path d="M43.6384 37.5505H25.3374C22.5568 37.5505 20.3027 39.8046 20.3027 42.5851V42.9987C20.3027 45.7792 22.5568 48.0333 25.3374 48.0333H43.6384C46.4189 48.0333 48.673 45.7792 48.673 42.9987V42.5851C48.673 39.8046 46.4189 37.5505 43.6384 37.5505Z" stroke="white" stroke-width="2" stroke-linecap="round" stroke-linejoin="round"/>
<path d="M11.5594 1H53.908C57.1521 1 59.7867 3.63454 59.7867 6.87868V23.4234H5.68066V6.87868C5.68066 3.63454 8.31522 1 11.5594 1Z" stroke="white" stroke-width="2" stroke-linecap="round" stroke-linejoin="round"/>
<path d="M42.1127 10.8513C42.1127 11.981 42.5986 12.9956 43.3745 13.699C42.6796 14.3427 41.7418 14.7349 40.7229 14.7349C38.5701 14.7349 36.8223 12.9956 36.8223 10.8513C36.8223 8.70706 38.5701 6.95923 40.7229 6.95923C41.746 6.95923 42.6796 7.35142 43.3745 7.99514C42.5986 8.69853 42.1127 9.71739 42.1127 10.8513Z" stroke="white" stroke-width="2" stroke-linecap="round" stroke-linejoin="round"/>
<path d="M49.9211 10.8513C49.9211 12.9956 48.1733 14.7349 46.0205 14.7349C44.9931 14.7349 44.068 14.3427 43.3732 13.699C42.5973 12.9956 42.1113 11.9768 42.1113 10.8513C42.1113 9.72592 42.5973 8.69853 43.3732 7.99514C44.068 7.35142 44.9931 6.95923 46.0205 6.95923C48.1733 6.95923 49.9211 8.69853 49.9211 10.8513Z" stroke="white" stroke-width="2" stroke-linecap="round" stroke-linejoin="round"/>
<path d="M4.94727 29.6895H9.03974" stroke="white" stroke-width="2" stroke-linecap="round" stroke-linejoin="round"/>
<path d="M13.4277 29.6895H17.5245" stroke="white" stroke-width="2" stroke-linecap="round" stroke-linejoin="round"/>
<path d="M21.9092 29.6895H26.0059" stroke="white" stroke-width="2" stroke-linecap="round" stroke-linejoin="round"/>
<path d="M30.3936 29.6895H34.486" stroke="white" stroke-width="2" stroke-linecap="round" stroke-linejoin="round"/>
<path d="M38.8721 29.6895H42.9688" stroke="white" stroke-width="2" stroke-linecap="round" stroke-linejoin="round"/>
<path d="M47.3564 29.6895H51.449" stroke="white" stroke-width="2" stroke-linecap="round" stroke-linejoin="round"/>
<path d="M55.835 29.6895H59.9317" stroke="white" stroke-width="2" stroke-linecap="round" stroke-linejoin="round"/>
<path d="M4.94727 53.0981H9.03974" stroke="white" stroke-width="2" stroke-linecap="round" stroke-linejoin="round"/>
<path d="M13.4277 53.0981H17.5245" stroke="white" stroke-width="2" stroke-linecap="round" stroke-linejoin="round"/>
<path d="M21.9092 53.0981H26.0059" stroke="white" stroke-width="2" stroke-linecap="round" stroke-linejoin="round"/>
<path d="M30.3936 53.0981H34.486" stroke="white" stroke-width="2" stroke-linecap="round" stroke-linejoin="round"/>
<path d="M38.8721 53.0981H42.9688" stroke="white" stroke-width="2" stroke-linecap="round" stroke-linejoin="round"/>
<path d="M47.3564 53.0981H51.449" stroke="white" stroke-width="2" stroke-linecap="round" stroke-linejoin="round"/>
<path d="M55.835 53.0981H59.9317" stroke="white" stroke-width="2" stroke-linecap="round" stroke-linejoin="round"/>
</svg>
