<svg width="80" height="80" viewBox="0 0 80 80" fill="none" xmlns="http://www.w3.org/2000/svg">
<path d="M3 21.7756H18.537L28.0112 53.9654L63.2077 54.3308L72.1191 31.9658L22.067 29.3442" stroke="white" stroke-width="2" stroke-linecap="round" stroke-linejoin="round"/>
<path d="M32.3514 71.5217C34.7482 71.5217 36.6911 69.5787 36.6911 67.182C36.6911 64.7852 34.7482 62.8423 32.3514 62.8423C29.9547 62.8423 28.0117 64.7852 28.0117 67.182C28.0117 69.5787 29.9547 71.5217 32.3514 71.5217Z" stroke="white" stroke-width="2" stroke-linecap="round" stroke-linejoin="round"/>
<path d="M61.9246 70.757C64.3214 70.757 66.2644 68.8141 66.2644 66.4173C66.2644 64.0206 64.3214 62.0776 61.9246 62.0776C59.5279 62.0776 57.585 64.0206 57.585 66.4173C57.585 68.8141 59.5279 70.757 61.9246 70.757Z" stroke="white" stroke-width="2" stroke-linecap="round" stroke-linejoin="round"/>
<path d="M28.0117 53.9653L29.952 62.077L62.986 61.4796" stroke="white" stroke-width="2" stroke-linecap="round" stroke-linejoin="round"/>
<path d="M29.0967 29.7687V17.5H50.415V30.8894" stroke="white" stroke-width="2" stroke-linecap="round" stroke-linejoin="round"/>
<path d="M35.2842 19.7317V11.2696C35.2842 6.91014 45.2571 6.91014 45.2571 11.2696V19.3467" stroke="white" stroke-width="2" stroke-linecap="round" stroke-linejoin="round"/>
<path d="M55.0371 23.3106V19.277C55.0371 15.1101 62.3785 15.1101 62.3785 19.277V23.3304" stroke="white" stroke-width="2" stroke-linecap="round" stroke-linejoin="round"/>
<path d="M50.415 23.3108H65.6361V31.6841" stroke="white" stroke-width="2" stroke-linecap="round" stroke-linejoin="round"/>
</svg>
