<svg width="54" height="74" viewBox="0 0 54 74" fill="none" xmlns="http://www.w3.org/2000/svg">
<path d="M53.0001 27.6399V72.0661H1V27.6399H20.0927C21.233 29.5367 22.5198 31.4387 23.8223 33.2311C27.9285 38.8954 32.1498 43.4676 32.1498 43.4676C32.1498 43.4676 39.4574 35.5355 44.207 27.6399H53.0001Z" stroke="white" stroke-width="2" stroke-linecap="round" stroke-linejoin="round"/>
<path d="M26.4586 72.0655L1 49.4082" stroke="white" stroke-width="2" stroke-linecap="round" stroke-linejoin="round"/>
<path d="M1 34.9304C3.9136 37.5692 8.08782 41.2636 12.8061 45.3916C18.3979 50.2878 24.7482 55.8058 30.6538 60.911C35.4819 65.0861 40.0119 68.9895 43.5845 72.0672" stroke="white" stroke-width="2" stroke-linecap="round" stroke-linejoin="round"/>
<path d="M23.8229 33.2258L12.8066 45.3905" stroke="white" stroke-width="2" stroke-linecap="round" stroke-linejoin="round"/>
<path d="M30.6602 60.9088L53.0012 36.5115" stroke="white" stroke-width="2" stroke-linecap="round" stroke-linejoin="round"/>
<path d="M32.1504 1C23.2998 1 16.123 8.23194 16.123 17.1517C16.123 20.0518 17.8126 23.8402 20.0985 27.6338C21.2388 29.5306 22.5256 31.4327 23.8281 33.225C27.9343 38.8893 32.1557 43.4615 32.1557 43.4615C32.1557 43.4615 39.4632 35.5294 44.2128 27.6338C46.4987 23.8402 48.1883 20.0465 48.1883 17.1517C48.1883 8.22671 41.0115 1 32.1609 1H32.1504ZM32.3283 8.17446C37.3447 8.17446 41.4143 12.2712 41.4143 17.3241C41.4143 22.3771 37.3499 26.479 32.3283 26.479C27.3066 26.479 23.2423 22.3823 23.2423 17.3241C23.2423 12.2659 27.3066 8.17446 32.3283 8.17446Z" stroke="white" stroke-width="2" stroke-linecap="round" stroke-linejoin="round"/>
<path d="M41.4094 17.3301C41.4094 22.3882 37.345 26.485 32.3233 26.485C27.3017 26.485 23.2373 22.3882 23.2373 17.3301C23.2373 12.2719 27.3017 8.18042 32.3233 8.18042C37.345 8.18042 41.4094 12.2771 41.4094 17.3301Z" stroke="white" stroke-width="2" stroke-linecap="round" stroke-linejoin="round"/>
<path d="M41.4094 17.3301C41.4094 22.3882 37.345 26.485 32.3233 26.485C27.3017 26.485 23.2373 22.3882 23.2373 17.3301C23.2373 12.2719 27.3017 8.18042 32.3233 8.18042C37.345 8.18042 41.4094 12.2771 41.4094 17.3301Z" stroke="white" stroke-width="2" stroke-linecap="round" stroke-linejoin="round"/>
</svg>
