<svg width="20" height="16" viewBox="0 0 20 16" fill="none" xmlns="http://www.w3.org/2000/svg">
<path fill-rule="evenodd" clip-rule="evenodd" d="M19.5 8C19.5 8.55228 19.0523 9 18.5 9L1 9C0.447716 9 -6.78525e-08 8.55228 -4.37114e-08 8C-1.95703e-08 7.44771 0.447716 7 1 7L18.5 7C19.0523 7 19.5 7.44772 19.5 8Z" fill="#C52978"/>
<path fill-rule="evenodd" clip-rule="evenodd" d="M19.7071 7.29289C20.0976 7.68342 20.0976 8.31658 19.7071 8.70711L12.7071 15.7071C12.3166 16.0976 11.6834 16.0976 11.2929 15.7071C10.9024 15.3166 10.9024 14.6834 11.2929 14.2929L17.5858 8L11.2929 1.70711C10.9024 1.31658 10.9024 0.683417 11.2929 0.292893C11.6834 -0.0976315 12.3166 -0.0976314 12.7071 0.292893L19.7071 7.29289Z" fill="#C52978"/>
</svg>
