<svg width="17" height="16" viewBox="0 0 17 16" fill="none" xmlns="http://www.w3.org/2000/svg">
<path d="M2.75 3.5C2.75 3.22386 3.07977 3 3.48657 3H14.0134C14.4202 3 14.75 3.22386 14.75 3.5C14.75 3.77614 14.4202 4 14.0134 4H3.48657C3.07977 4 2.75 3.77614 2.75 3.5Z" fill="#363636"/>
<path d="M2.75 7.5C2.75 7.22386 3.07977 7 3.48657 7H12.0134C12.4202 7 12.75 7.22386 12.75 7.5C12.75 7.77614 12.4202 8 12.0134 8H3.48657C3.07978 8 2.75 7.77614 2.75 7.5Z" fill="#363636"/>
<path d="M2.75 11.5C2.75 11.2239 3.07977 11 3.48657 11H14.0134C14.4202 11 14.75 11.2239 14.75 11.5C14.75 11.7761 14.4202 12 14.0134 12H3.48657C3.07977 12 2.75 11.7761 2.75 11.5Z" fill="#363636"/>
</svg>
