<svg width="32" height="32" viewBox="0 0 32 32" fill="none" xmlns="http://www.w3.org/2000/svg">
<path d="M27.0001 22.1421V9.85807C27.6825 9.68321 28.3064 9.33088 28.8086 8.83687C29.3108 8.34285 29.6733 7.72475 29.8594 7.04531C30.0454 6.36588 30.0484 5.64931 29.8679 4.96837C29.6875 4.28743 29.33 3.66637 28.8319 3.16825C28.3338 2.67013 27.7127 2.3127 27.0318 2.13224C26.3508 1.95177 25.6343 1.95471 24.9548 2.14076C24.2754 2.3268 23.6573 2.68933 23.1633 3.19152C22.6693 3.69371 22.3169 4.31768 22.1421 5.00007H9.85807C9.68321 4.31768 9.33088 3.69371 8.83687 3.19152C8.34285 2.68933 7.72475 2.3268 7.04531 2.14076C6.36588 1.95471 5.64931 1.95177 4.96837 2.13224C4.28743 2.3127 3.66637 2.67013 3.16825 3.16825C2.67013 3.66637 2.3127 4.28743 2.13224 4.96837C1.95177 5.64931 1.95471 6.36588 2.14076 7.04531C2.3268 7.72475 2.68933 8.34285 3.19152 8.83687C3.69371 9.33088 4.31768 9.68321 5.00007 9.85807V22.1421C4.31768 22.3169 3.69371 22.6693 3.19152 23.1633C2.68933 23.6573 2.3268 24.2754 2.14076 24.9548C1.95471 25.6343 1.95177 26.3508 2.13224 27.0318C2.3127 27.7127 2.67013 28.3338 3.16825 28.8319C3.66637 29.33 4.28743 29.6875 4.96837 29.8679C5.64931 30.0484 6.36588 30.0454 7.04531 29.8594C7.72475 29.6733 8.34285 29.3108 8.83687 28.8086C9.33088 28.3064 9.68321 27.6825 9.85807 27.0001H22.1421C22.3169 27.6825 22.6693 28.3064 23.1633 28.8086C23.6573 29.3108 24.2754 29.6733 24.9548 29.8594C25.6343 30.0454 26.3508 30.0484 27.0318 29.8679C27.7127 29.6875 28.3338 29.33 28.8319 28.8319C29.33 28.3338 29.6875 27.7127 29.8679 27.0318C30.0484 26.3508 30.0454 25.6343 29.8594 24.9548C29.6733 24.2754 29.3108 23.6573 28.8086 23.1633C28.3064 22.6693 27.6825 22.3169 27.0001 22.1421ZM26.0001 4.00007C26.3956 4.00007 26.7823 4.11737 27.1112 4.33714C27.4401 4.5569 27.6965 4.86926 27.8478 5.23471C27.9992 5.60016 28.0388 6.00229 27.9616 6.39025C27.8845 6.77822 27.694 7.13458 27.4143 7.41429C27.1346 7.69399 26.7782 7.88447 26.3903 7.96165C26.0023 8.03882 25.6002 7.99921 25.2347 7.84783C24.8693 7.69646 24.5569 7.44011 24.3371 7.11121C24.1174 6.78232 24.0001 6.39564 24.0001 6.00007C24.0001 5.46964 24.2108 4.96093 24.5859 4.58586C24.9609 4.21079 25.4696 4.00007 26.0001 4.00007ZM4.00007 6.00007C4.00007 5.60451 4.11737 5.21783 4.33714 4.88893C4.5569 4.56004 4.86926 4.30369 5.23471 4.15232C5.60016 4.00094 6.00229 3.96133 6.39025 4.0385C6.77822 4.11567 7.13458 4.30616 7.41429 4.58586C7.69399 4.86557 7.88447 5.22193 7.96165 5.60989C8.03882 5.99786 7.99921 6.39999 7.84783 6.76544C7.69646 7.13089 7.44011 7.44325 7.11121 7.66301C6.78232 7.88278 6.39564 8.00007 6.00007 8.00007C5.46964 8.00007 4.96093 7.78936 4.58586 7.41429C4.21079 7.03922 4.00007 6.53051 4.00007 6.00007ZM6.00007 28.0001C5.60451 28.0001 5.21783 27.8828 4.88893 27.663C4.56004 27.4433 4.30369 27.1309 4.15232 26.7654C4.00094 26.4 3.96133 25.9979 4.0385 25.6099C4.11567 25.2219 4.30616 24.8656 4.58586 24.5859C4.86557 24.3062 5.22193 24.1157 5.60989 24.0385C5.99786 23.9613 6.39999 24.0009 6.76544 24.1523C7.13089 24.3037 7.44325 24.56 7.66301 24.8889C7.88278 25.2178 8.00007 25.6045 8.00007 26.0001C8.00007 26.5305 7.78936 27.0392 7.41429 27.4143C7.03922 27.7894 6.53051 28.0001 6.00007 28.0001ZM22.1421 25.0001H9.85807C9.67837 24.3128 9.3189 23.6858 8.81661 23.1835C8.31431 22.6812 7.68732 22.3218 7.00007 22.1421V9.85807C7.68732 9.67837 8.31431 9.3189 8.81661 8.81661C9.3189 8.31431 9.67837 7.68732 9.85807 7.00007H22.1421C22.3218 7.68732 22.6812 8.31431 23.1835 8.81661C23.6858 9.3189 24.3128 9.67837 25.0001 9.85807V22.1421C24.3124 22.3208 23.6849 22.68 23.1824 23.1824C22.68 23.6849 22.3208 24.3124 22.1421 25.0001ZM26.0001 28.0001C25.6045 28.0001 25.2178 27.8828 24.8889 27.663C24.56 27.4433 24.3037 27.1309 24.1523 26.7654C24.0009 26.4 23.9613 25.9979 24.0385 25.6099C24.1157 25.2219 24.3062 24.8656 24.5859 24.5859C24.8656 24.3062 25.2219 24.1157 25.6099 24.0385C25.9979 23.9613 26.4 24.0009 26.7654 24.1523C27.1309 24.3037 27.4433 24.56 27.663 24.8889C27.8828 25.2178 28.0001 25.6045 28.0001 26.0001C27.9993 26.5303 27.7883 27.0385 27.4134 27.4134C27.0385 27.7883 26.5303 27.9993 26.0001 28.0001Z" fill="#909090"/>
</svg>
