<svg width="24" height="24" viewBox="0 0 24 24" fill="none" xmlns="http://www.w3.org/2000/svg">
<path fill-rule="evenodd" clip-rule="evenodd" d="M0 1H4.78078L5.53078 4H23.2466L20.8022 15H8.28078L8.78078 17H21V19H7.21922L3.21922 3H0V1ZM7.78078 13H19.1978L20.7534 6H6.03078L7.78078 13ZM7.58579 20.5858C7.96086 20.2107 8.46957 20 9 20C9.53043 20 10.0391 20.2107 10.4142 20.5858C10.7893 20.9609 11 21.4696 11 22C11 22.5304 10.7893 23.0391 10.4142 23.4142C10.0391 23.7893 9.53043 24 9 24C8.46957 24 7.96086 23.7893 7.58579 23.4142C7.21071 23.0391 7 22.5304 7 22C7 21.4696 7.21071 20.9609 7.58579 20.5858ZM17.5858 20.5858C17.9609 20.2107 18.4696 20 19 20C19.5304 20 20.0391 20.2107 20.4142 20.5858C20.7893 20.9609 21 21.4696 21 22C21 22.5304 20.7893 23.0391 20.4142 23.4142C20.0391 23.7893 19.5304 24 19 24C18.4696 24 17.9609 23.7893 17.5858 23.4142C17.2107 23.0391 17 22.5304 17 22C17 21.4696 17.2107 20.9609 17.5858 20.5858Z" fill="#363636"/>
</svg>
