<svg width="14" height="14" viewBox="0 0 14 14" fill="none" xmlns="http://www.w3.org/2000/svg">
<path d="M11.9 0H2.1C0.944727 0 0 0.945068 0 2.1V11.9C0 13.0549 0.944727 14 2.1 14H11.9C13.0553 14 14 13.0549 14 11.9V2.1C14 0.945068 13.0553 0 11.9 0ZM10.122 5.74697L6.62197 9.24697C6.48184 9.37993 6.30684 9.45 6.125 9.45C5.94316 9.45 5.76816 9.37993 5.62803 9.24697L3.87803 7.49697C3.60527 7.22388 3.60527 6.77612 3.87803 6.50303C4.15078 6.22993 4.59922 6.22993 4.87197 6.50303L6.125 7.76289L9.12803 4.75303C9.40078 4.47993 9.84922 4.47993 10.122 4.75303C10.3947 5.02612 10.3947 5.47388 10.122 5.74697Z" fill="#26B73F"/>
</svg>
