<svg width="14" height="16" viewBox="0 0 14 16" fill="none" xmlns="http://www.w3.org/2000/svg">
<path d="M7.47265 15.5073C7.49657 15.5021 7.51976 15.4941 7.54172 15.4833C7.56454 15.4719 7.58756 15.4591 7.61078 15.4451L13.0133 12.3678C13.3354 12.1836 13.5803 11.9732 13.7481 11.7366C13.9162 11.4994 14.0002 11.1302 14 10.6291V5.25398C14 5.04237 13.9816 4.86751 13.9447 4.72937L7.47265 8.42801V15.5073ZM6.52735 15.5073V8.42801L0.0552529 4.72937C0.0184176 4.86751 0 5.04237 0 5.25398V10.6291C0 11.1306 0.0850814 11.4998 0.255244 11.7366C0.425407 11.9734 0.669241 12.1838 0.986744 12.3678L6.39612 15.4451C6.41894 15.4589 6.44076 15.4717 6.46158 15.4833C6.48212 15.4944 6.50447 15.5025 6.52735 15.5073ZM7.0033 7.59982L9.94942 5.93022L3.41517 2.19735L0.882845 3.63933C0.726696 3.72681 0.597872 3.8165 0.496375 3.90839L7.0033 7.59982ZM10.9085 5.3849L13.503 3.90839C13.3864 3.80549 13.2592 3.7153 13.1235 3.63933L8.2525 0.865577C7.82469 0.617139 7.40829 0.49292 7.0033 0.49292C6.59391 0.49292 6.17541 0.617039 5.7478 0.865276L4.34696 1.65894L10.9085 5.3849Z" fill="#909090"/>
</svg>
