<svg width="17" height="16" viewBox="0 0 17 16" fill="none" xmlns="http://www.w3.org/2000/svg">
<path fill-rule="evenodd" clip-rule="evenodd" d="M8.25696 2.14194C8.41665 2.13811 8.57542 2.16711 8.72344 2.22716C8.87147 2.2872 9.00558 2.377 9.11748 2.49099L13.6652 7.122C13.6652 7.12209 13.6651 7.12192 13.6652 7.122C13.8793 7.33984 13.9996 7.63322 14 7.93867V12.9999C14 13.3093 13.8771 13.6061 13.6583 13.8249C13.4395 14.0437 13.1428 14.1666 12.8333 14.1666H10.8333C10.5239 14.1666 10.2272 14.0437 10.0084 13.8249C9.78958 13.6061 9.66667 13.3093 9.66667 12.9999V10.6666C9.66667 10.6224 9.64911 10.58 9.61785 10.5487C9.5866 10.5175 9.5442 10.4999 9.5 10.4999H7.5C7.4558 10.4999 7.41341 10.5175 7.38215 10.5487C7.35089 10.58 7.33333 10.6224 7.33333 10.6666V12.9999C7.33333 13.3093 7.21042 13.6061 6.99162 13.8249C6.77283 14.0437 6.47609 14.1666 6.16667 14.1666H4.16667C3.85725 14.1666 3.5605 14.0437 3.34171 13.8249C3.12292 13.6061 3 13.3093 3 12.9999V7.92128C3 7.92127 3 7.92129 3 7.92128C2.99999 7.63468 3.10547 7.35808 3.29633 7.14428L7.41415 2.53182C7.41421 2.53175 7.41408 2.53189 7.41415 2.53182C7.52042 2.4127 7.6502 2.31643 7.79509 2.24941C7.94006 2.18235 8.09727 2.14576 8.25696 2.14194ZM8.34756 3.15382C8.32642 3.14525 8.30373 3.1411 8.28092 3.14165C8.25811 3.1422 8.23565 3.14742 8.21494 3.157C8.19423 3.16658 8.17571 3.18032 8.16052 3.19735L4.04233 7.81022C4.04233 7.81023 4.04234 7.81022 4.04233 7.81022C4.01508 7.84077 4 7.88029 4 7.92122V12.9999C4 13.0441 4.01756 13.0865 4.04882 13.1178C4.08007 13.149 4.12246 13.1666 4.16667 13.1666H6.16667C6.21087 13.1666 6.25326 13.149 6.28452 13.1178C6.31577 13.0865 6.33333 13.0441 6.33333 12.9999V10.6666C6.33333 10.3572 6.45625 10.0604 6.67504 9.84163C6.89383 9.62283 7.19058 9.49992 7.5 9.49992H9.5C9.80942 9.49992 10.1062 9.62283 10.325 9.84163C10.5438 10.0604 10.6667 10.3572 10.6667 10.6666V12.9999C10.6667 13.0441 10.6842 13.0865 10.7155 13.1178C10.7467 13.149 10.7891 13.1666 10.8333 13.1666H12.8333C12.8775 13.1666 12.9199 13.149 12.9512 13.1178C12.9824 13.0865 13 13.0441 13 12.9999L13 7.93983C13 7.9397 13 7.93997 13 7.93983C12.9998 7.89633 12.9827 7.8542 12.9522 7.82317L8.40392 3.19158C8.38793 3.17529 8.36871 3.1624 8.34756 3.15382Z" fill="black"/>
</svg>
