<svg width="6" height="8" viewBox="0 0 6 8" fill="none" xmlns="http://www.w3.org/2000/svg">
<path d="M2.26 5.27V3.72C2.8 3.7 3.22667 3.59333 3.54 3.4C3.85333 3.2 4.01 2.89 4.01 2.47V2.33C4.01 1.99667 3.91 1.75 3.71 1.59C3.51667 1.43 3.25667 1.35 2.93 1.35C2.58333 1.35 2.30333 1.45 2.09 1.65C1.87667 1.84333 1.73 2.09 1.65 2.39L0.7 2.01C0.76 1.80333 0.85 1.60333 0.97 1.41C1.09667 1.21 1.25 1.03667 1.43 0.89C1.61667 0.743333 1.83667 0.626666 2.09 0.54C2.34333 0.446666 2.63667 0.4 2.97 0.4C3.30333 0.4 3.60333 0.446666 3.87 0.54C4.14333 0.633333 4.37667 0.766666 4.57 0.94C4.76333 1.10667 4.91 1.31333 5.01 1.56C5.11667 1.8 5.17 2.06667 5.17 2.36C5.17 2.66 5.11667 2.92667 5.01 3.16C4.90333 3.39333 4.76333 3.59333 4.59 3.76C4.41667 3.92667 4.21667 4.06333 3.99 4.17C3.77 4.27667 3.54333 4.35 3.31 4.39V5.27H2.26ZM2.81 7.6C2.50333 7.6 2.28667 7.53667 2.16 7.41C2.03333 7.28333 1.97 7.12333 1.97 6.93V6.69C1.97 6.49667 2.03333 6.33667 2.16 6.21C2.28667 6.08333 2.50333 6.02 2.81 6.02C3.11667 6.02 3.33333 6.08333 3.46 6.21C3.58667 6.33667 3.65 6.49667 3.65 6.69V6.93C3.65 7.12333 3.58667 7.28333 3.46 7.41C3.33333 7.53667 3.11667 7.6 2.81 7.6Z" fill="white"/>
</svg>
