<svg xmlns="http://www.w3.org/2000/svg" version="1.1" xmlns:xlink="http://www.w3.org/1999/xlink" width="512" height="512" x="0" y="0" viewBox="0 0 20 20" style="enable-background:new 0 0 512 512" xml:space="preserve" class=""><g><path d="M2.5 6c0-.6.4-1 1-1h10.6l-1.4 1.4c-.4.4-.4 1.1 0 1.4.6.6 1.2.2 1.4 0l3.1-3.1c.4-.4.4-1 0-1.4L14.1.2c-.4-.4-1-.4-1.4 0s-.4 1 0 1.4L14.1 3H3.5c-1.7 0-3 1.3-3 3v4.5c0 .6.4 1 1 1s1-.4 1-1zM18.5 8.5c-.6 0-1 .4-1 1V14c0 .6-.4 1-1 1H5.9l1.4-1.4c.4-.4.4-1 0-1.4s-1-.4-1.4 0l-3.1 3.1c-.4.4-.4 1 0 1.4l3.1 3.1c.6.6 1.2.2 1.4 0 .4-.4.4-1 0-1.4L5.9 17h10.6c1.7 0 3-1.3 3-3V9.5c0-.6-.4-1-1-1z" fill="#000000" opacity="1" data-original="#000000" class=""></path></g></svg>
