<svg width="18" height="18" viewBox="0 0 18 18" fill="none" xmlns="http://www.w3.org/2000/svg">
<path fill-rule="evenodd" clip-rule="evenodd" d="M4.93875 0.60864C5.9094 0.206584 6.94973 -0.000350952 8.00036 -0.000350952C9.05098 -0.000350952 10.0913 0.206584 11.062 0.60864C12.0326 1.0107 12.9146 1.6 13.6575 2.3429C14.4004 3.0858 14.9897 3.96775 15.3917 4.9384C15.7938 5.90905 16.0007 6.94938 16.0007 8.00001C16.0007 9.05063 15.7938 10.091 15.3917 11.0616C15.1179 11.7227 14.7572 12.3427 14.3202 12.9056L17.7075 16.2929C18.098 16.6834 18.098 17.3166 17.7075 17.7071C17.3169 18.0976 16.6838 18.0976 16.2933 17.7071L12.906 14.3199C11.5102 15.4034 9.78608 16.0004 8.00036 16.0004C5.87853 16.0004 3.84361 15.1575 2.34325 13.6571C0.842893 12.1568 0 10.1218 0 8.00001C0 5.87818 0.842893 3.84326 2.34325 2.3429C3.08615 1.6 3.9681 1.0107 4.93875 0.60864ZM8.00036 1.99965C7.21238 1.99965 6.43212 2.15485 5.70412 2.4564C4.97612 2.75795 4.31465 3.19993 3.75746 3.75711C2.63218 4.8824 2 6.40861 2 8.00001C2 9.5914 2.63218 11.1176 3.75746 12.2429C4.88275 13.3682 6.40896 14.0004 8.00036 14.0004C9.59175 14.0004 11.118 13.3682 12.2433 12.2429C12.8004 11.6857 13.2424 11.0242 13.544 10.2962C13.8455 9.56825 14.0007 8.78798 14.0007 8.00001C14.0007 7.21203 13.8455 6.43177 13.544 5.70377C13.2424 4.97577 12.8004 4.3143 12.2433 3.75711C11.6861 3.19993 11.0246 2.75795 10.2966 2.4564C9.5686 2.15485 8.78833 1.99965 8.00036 1.99965Z" fill="black"/>
</svg>
