<svg width="28" height="28" viewBox="0 0 28 28" fill="none" xmlns="http://www.w3.org/2000/svg">
<g clip-path="url(#clip0_5187_5455)">
<path d="M14 0.4375C6.26613 0.4375 0 6.50781 0 14C0 21.4922 6.26613 27.5625 14 27.5625C21.7339 27.5625 28 21.4922 28 14C28 6.50781 21.7339 0.4375 14 0.4375ZM20.8758 9.72891L18.5782 20.218C18.4089 20.9617 17.9516 21.1422 17.3137 20.7922L13.8137 18.293L12.1258 19.868C11.9395 20.0484 11.7815 20.2016 11.4202 20.2016L11.6685 16.7508L18.1548 11.0742C18.4371 10.8336 18.0927 10.6969 17.7202 10.9375L9.70403 15.8266L6.24919 14.782C5.49839 14.5523 5.48145 14.0547 6.40726 13.7047L19.9048 8.6625C20.5315 8.44375 21.079 8.81016 20.8758 9.72891Z" fill="#363636"/>
</g>
<defs>
<clipPath id="clip0_5187_5455">
<rect width="28" height="28" fill="white"/>
</clipPath>
</defs>
</svg>
