<svg width="24" height="24" viewBox="0 0 24 24" fill="none" xmlns="http://www.w3.org/2000/svg">
<path fill-rule="evenodd" clip-rule="evenodd" d="M2.68753 8.16001C2.77419 8.24038 2.87585 8.3029 2.98668 8.34399C3.09751 8.38508 3.21535 8.40393 3.33347 8.39948C3.45159 8.39502 3.56767 8.36734 3.67509 8.31801C3.78251 8.26869 3.87916 8.19869 3.95953 8.11201L6.29953 5.592V15.9C6.29953 16.1387 6.39435 16.3676 6.56313 16.5364C6.73191 16.7052 6.96083 16.8 7.19953 16.8C7.43822 16.8 7.66714 16.7052 7.83592 16.5364C8.00471 16.3676 8.09953 16.1387 8.09953 15.9V5.592L10.4395 8.11201C10.5199 8.19868 10.6165 8.26867 10.724 8.31799C10.8314 8.36731 10.9475 8.39499 11.0656 8.39944C11.1837 8.4039 11.3015 8.38505 11.4124 8.34397C11.5232 8.30289 11.6249 8.24037 11.7115 8.16001C11.7982 8.07964 11.8682 7.98298 11.9175 7.87556C11.9668 7.76814 11.9945 7.65206 11.999 7.53395C12.0034 7.41583 11.9846 7.29799 11.9435 7.18716C11.9024 7.07633 11.8399 6.97468 11.7595 6.888L7.85953 2.688C7.77528 2.59713 7.67317 2.52463 7.5596 2.47506C7.44603 2.42548 7.32345 2.39989 7.19953 2.39989C7.07561 2.39989 6.95302 2.42548 6.83945 2.47506C6.72588 2.52463 6.62378 2.59713 6.53953 2.688L2.63953 6.888C2.55915 6.97467 2.49663 7.07632 2.45554 7.18716C2.41445 7.29799 2.3956 7.41583 2.40005 7.53395C2.40451 7.65207 2.43219 7.76815 2.48152 7.87557C2.53084 7.98299 2.60085 8.07964 2.68753 8.16001ZM12.2875 15.84C12.2008 15.9204 12.1308 16.017 12.0815 16.1244C12.0322 16.2319 12.0045 16.3479 12.0001 16.4661C11.9956 16.5842 12.0145 16.702 12.0555 16.8129C12.0966 16.9237 12.1591 17.0253 12.2395 17.112L16.1395 21.312C16.2238 21.4029 16.3259 21.4754 16.4395 21.525C16.553 21.5745 16.6756 21.6001 16.7995 21.6001C16.9234 21.6001 17.046 21.5745 17.1596 21.525C17.2732 21.4754 17.3753 21.4029 17.4595 21.312L21.3595 17.112C21.4399 17.0253 21.5024 16.9237 21.5435 16.8128C21.5846 16.702 21.6034 16.5842 21.599 16.4661C21.5945 16.3479 21.5668 16.2319 21.5175 16.1244C21.4682 16.017 21.3982 15.9204 21.3115 15.84C21.2249 15.7596 21.1232 15.6971 21.0124 15.656C20.9015 15.615 20.7837 15.5961 20.6656 15.6006C20.5475 15.605 20.4314 15.6327 20.324 15.682C20.2165 15.7313 20.1199 15.8013 20.0395 15.888L17.6995 18.408V8.10001C17.6995 7.86131 17.6047 7.63239 17.4359 7.46361C17.2671 7.29483 17.0382 7.20001 16.7995 7.20001C16.5608 7.20001 16.3319 7.29483 16.1631 7.46361C15.9943 7.63239 15.8995 7.86131 15.8995 8.10001V18.408L13.5595 15.888C13.4792 15.8013 13.3825 15.7313 13.2751 15.682C13.1677 15.6327 13.0516 15.605 12.9335 15.6005C12.8153 15.5961 12.6975 15.6149 12.5867 15.656C12.4758 15.6971 12.3742 15.7596 12.2875 15.84Z" fill="black"/>
</svg>
