<svg width="28" height="30" viewBox="0 0 28 30" fill="none" xmlns="http://www.w3.org/2000/svg">
<path fill-rule="evenodd" clip-rule="evenodd" d="M14.0003 0.666504C6.63633 0.666504 0.666992 6.63584 0.666992 13.9998C0.666992 16.5198 1.36699 18.8798 2.58433 20.8905L1.39499 24.9332C1.3267 25.1653 1.32221 25.4115 1.38198 25.6459C1.44176 25.8804 1.56359 26.0944 1.73467 26.2655C1.90575 26.4366 2.11977 26.5584 2.35421 26.6182C2.58866 26.678 2.83488 26.6735 3.06699 26.6052L7.10966 25.4158C9.18797 26.6731 11.5713 27.3363 14.0003 27.3332C21.3643 27.3332 27.3337 21.3638 27.3337 13.9998C27.3337 6.63584 21.3643 0.666504 14.0003 0.666504ZM10.9843 17.0172C13.6817 19.7132 16.2563 20.0692 17.1657 20.1025C18.5483 20.1532 19.895 19.0972 20.419 17.8718C20.4846 17.7193 20.5083 17.552 20.4877 17.3872C20.467 17.2225 20.4028 17.0662 20.3017 16.9345C19.571 16.0012 18.583 15.3305 17.6177 14.6638C17.4162 14.5241 17.1684 14.468 16.9265 14.5073C16.6845 14.5466 16.4672 14.6783 16.3203 14.8745L15.5203 16.0945C15.478 16.1598 15.4125 16.2067 15.337 16.2255C15.2615 16.2443 15.1816 16.2337 15.1137 16.1958C14.571 15.8852 13.7803 15.3572 13.2123 14.7892C12.6443 14.2212 12.1483 13.4665 11.8697 12.9585C11.8359 12.8938 11.8264 12.8192 11.8428 12.748C11.8592 12.6769 11.9004 12.614 11.959 12.5705L13.191 11.6558C13.3673 11.5033 13.4812 11.291 13.5107 11.0598C13.5402 10.8285 13.4833 10.5945 13.351 10.4025C12.7537 9.52784 12.0577 8.41584 11.0483 7.6785C10.9178 7.58471 10.7652 7.52623 10.6055 7.50871C10.4457 7.49119 10.2841 7.51523 10.1363 7.5785C8.90966 8.10384 7.84832 9.4505 7.89899 10.8358C7.93232 11.7452 8.28832 14.3198 10.9843 17.0172Z" fill="#363636"/>
</svg>
