<svg width="155" height="67" viewBox="0 0 155 67" fill="none" xmlns="http://www.w3.org/2000/svg">
<path d="M28.3313 36.9924V31.1962C29.478 31.1962 30.4004 31.1464 31.0985 31.0466C31.8214 30.9469 32.4197 30.735 32.8934 30.4109C33.392 30.0619 33.8532 29.5509 34.277 28.8778L24.3301 10.5171H31.3976L37.4181 23.119L42.3542 10.5171H48.8234L42.0924 26.2228C41.6686 27.195 41.2448 28.1548 40.821 29.1021C40.3972 30.0245 39.936 30.8971 39.4374 31.7197C38.9638 32.5424 38.4278 33.2903 37.8295 33.9634C37.2561 34.6116 36.6079 35.1476 35.885 35.5714C34.9875 36.07 33.928 36.4314 32.7064 36.6558C31.5098 36.8802 30.0514 36.9924 28.3313 36.9924Z" fill="#F7F7F7"/>
<path d="M131.017 40.2866H136.951V48.4119C136.951 49.5318 137.127 50.4082 137.48 51.0412C137.845 51.662 138.381 52.1002 139.087 52.3558C139.805 52.6115 140.694 52.7393 141.753 52.7393C142.094 52.7393 142.532 52.721 143.068 52.6845C143.603 52.648 144.163 52.5993 144.747 52.5384C145.344 52.4654 145.898 52.3863 146.409 52.3011C146.932 52.2037 147.346 52.0941 147.651 51.9724V56.5737C147.346 56.6832 146.926 56.7867 146.391 56.8841C145.855 56.9814 145.289 57.0667 144.693 57.1397C144.108 57.2006 143.548 57.2492 143.013 57.2858C142.489 57.3223 142.069 57.3405 141.753 57.3405C139.586 57.3405 137.693 57.024 136.074 56.3911C134.468 55.7581 133.22 54.7843 132.331 53.4696C131.455 52.155 131.017 50.4691 131.017 48.4119V40.2866ZM146.464 40.2866H152.398V66.8717H146.464V40.2866Z" fill="#F7F7F7"/>
<path d="M110.841 57.6692L120.975 40.2866H126.909V66.8717H120.975V49.5074L110.841 66.8717H104.907V40.2866H110.841V57.6692Z" fill="#F7F7F7"/>
<path d="M100.087 40.2866V66.8717H94.1346V44.9062H84.0191V66.8717H78.085V40.2866H100.087Z" fill="#F7F7F7"/>
<path d="M64.0252 57.6327H56.1739V53.0132H64.0252C65.0112 53.0132 65.8024 52.8488 66.3989 52.5202C67.0075 52.1915 67.4518 51.7411 67.7318 51.169C68.0239 50.5847 68.17 49.9274 68.17 49.197C68.17 48.4423 68.0239 47.7424 67.7318 47.0972C67.4518 46.4399 67.0075 45.9104 66.3989 45.5087C65.8024 45.107 65.0112 44.9062 64.0252 44.9062H58.3284V66.8717H52.376V40.2866H64.0252C66.1433 40.2866 67.957 40.6701 69.4664 41.4369C70.988 42.2038 72.1505 43.2568 72.9539 44.5957C73.7695 45.9226 74.1772 47.4442 74.1772 49.1605C74.1772 50.8768 73.7695 52.368 72.9539 53.634C72.1505 54.8999 70.988 55.8859 69.4664 56.5919C67.957 57.2858 66.1433 57.6327 64.0252 57.6327Z" fill="#F7F7F7"/>
<path d="M31.4332 57.6692L41.567 40.2866H47.5011V66.8717H41.567V49.5074L31.4332 66.8717H25.499V40.2866H31.4332V57.6692Z" fill="#F7F7F7"/>
<path d="M5.93418 40.2866V66.8717H0V40.2866H5.93418ZM21.4361 40.2866L11.558 56.1172H4.7656L4.03524 50.8038H8.45392L14.242 40.2866H21.4361ZM15.2828 66.8717L8.45392 55.1129L12.6718 51.0229L22.3308 66.8717H15.2828Z" fill="#F7F7F7"/>
<path d="M84.2193 27.8997L94.3531 10.5171H100.287V37.1022H94.3531V19.7379L84.2193 37.1022H78.2852V10.5171H84.2193V27.8997Z" fill="#F7F7F7"/>
<path d="M74.3781 10.5171V37.1022H68.4256V15.1366H58.3102V37.1022H52.376V10.5171H74.3781Z" fill="#F7F7F7"/>
<path d="M5.93418 10.5171V37.1022H0V10.5171H5.93418ZM21.4361 10.5171L11.558 26.3477H4.7656L4.03524 21.0343H8.45392L14.242 10.5171H21.4361ZM15.2828 37.1022L8.45392 25.3434L12.6718 21.2534L22.3308 37.1022H15.2828Z" fill="#F7F7F7"/>
<path d="M113.651 0.963379L155.001 12.0429L149.461 32.7176L108.112 21.6381L113.651 0.963379Z" fill="#F7F7F7"/>
<path d="M106.862 23.2303L148.979 34.5155L146.568 35.7964L104.451 24.5112L106.862 23.2303Z" fill="#F7F7F7"/>
<path d="M109.341 2.66654L111.853 0.481719L106.306 21.1866L103.793 23.3714L109.341 2.66654Z" fill="#F7F7F7"/>
</svg>
