<svg width="149" height="64" viewBox="0 0 149 64" fill="none" xmlns="http://www.w3.org/2000/svg">
<path d="M27.0839 35.4355V29.8945C28.1802 29.8945 29.062 29.8468 29.7293 29.7515C30.4205 29.6562 30.9924 29.4536 31.4453 29.1438C31.9219 28.8101 32.3628 28.3216 32.768 27.6781L23.2588 10.1254H30.0153L35.7708 22.1728L40.4897 10.1254H46.6742L40.2394 25.1399C39.8343 26.0694 39.4291 26.9869 39.024 27.8926C38.6188 28.7744 38.1779 29.6085 37.7013 30.395C37.2485 31.1814 36.7361 31.8964 36.1641 32.5399C35.6159 33.1595 34.9963 33.6719 34.3052 34.0771C33.4472 34.5537 32.4343 34.8993 31.2665 35.1138C30.1225 35.3283 28.7283 35.4355 27.0839 35.4355Z" fill="#C52978"/>
<path d="M125.251 38.5847H130.924V46.3524C130.924 47.423 131.093 48.2609 131.43 48.866C131.779 49.4595 132.291 49.8784 132.966 50.1228C133.653 50.3672 134.502 50.4894 135.515 50.4894C135.841 50.4894 136.26 50.4719 136.772 50.437C137.284 50.4021 137.819 50.3555 138.377 50.2973C138.948 50.2275 139.477 50.1519 139.966 50.0704C140.466 49.9773 140.862 49.8726 141.153 49.7562V54.155C140.862 54.2597 140.46 54.3586 139.948 54.4517C139.436 54.5448 138.895 54.6263 138.325 54.6961C137.767 54.7543 137.231 54.8009 136.719 54.8358C136.219 54.8707 135.817 54.8881 135.515 54.8881C133.443 54.8881 131.634 54.5856 130.086 53.9804C128.55 53.3753 127.357 52.4444 126.508 51.1876C125.67 49.9308 125.251 48.3191 125.251 46.3524V38.5847ZM140.018 38.5847H145.691V63.9999H140.018V38.5847Z" fill="#C52978"/>
<path d="M105.963 55.2023L115.651 38.5847H121.324V63.9999H115.651V47.3997L105.963 63.9999H100.29V38.5847H105.963V55.2023Z" fill="#C52978"/>
<path d="M95.6813 38.5847V63.9999H89.9908V43.001H80.3205V63.9999H74.6475V38.5847H95.6813Z" fill="#C52978"/>
<path d="M61.2069 55.1674H53.701V50.7512H61.2069C62.1495 50.7512 62.9059 50.5941 63.4761 50.2799C64.0579 49.9657 64.4827 49.5351 64.7503 48.9882C65.0296 48.4296 65.1693 47.8012 65.1693 47.103C65.1693 46.3815 65.0296 45.7124 64.7503 45.0956C64.4827 44.4672 64.0579 43.961 63.4761 43.577C62.9059 43.193 62.1495 43.001 61.2069 43.001H55.7608V63.9999H50.0703V38.5847H61.2069C63.2317 38.5847 64.9656 38.9513 66.4086 39.6844C67.8632 40.4176 68.9746 41.4242 69.7426 42.7042C70.5223 43.9727 70.9121 45.4273 70.9121 47.0681C70.9121 48.7089 70.5223 50.1344 69.7426 51.3447C68.9746 52.5549 67.8632 53.4975 66.4086 54.1725C64.9656 54.8358 63.2317 55.1674 61.2069 55.1674Z" fill="#C52978"/>
<path d="M30.049 55.2023L39.7368 38.5847H45.4098V63.9999H39.7368V47.3997L30.049 63.9999H24.376V38.5847H30.049V55.2023Z" fill="#C52978"/>
<path d="M5.67302 38.5847V63.9999H0V38.5847H5.67302ZM20.4927 38.5847L11.0493 53.7186H4.55587L3.85765 48.6391H8.08187L13.6152 38.5847H20.4927ZM14.6102 63.9999L8.08187 52.7586L12.1141 48.8485L21.348 63.9999H14.6102Z" fill="#C52978"/>
<path d="M80.5129 26.743L90.2006 10.1254H95.8736V35.5406H90.2006V18.9404L80.5129 35.5406H74.8398V10.1254H80.5129V26.743Z" fill="#C52978"/>
<path d="M71.1041 10.1254V35.5406H65.4136V14.5417H55.7433V35.5406H50.0703V10.1254H71.1041Z" fill="#C52978"/>
<path d="M5.67302 10.1254V35.5406H0V10.1254H5.67302ZM20.4927 10.1254L11.0493 25.2593H4.55587L3.85765 20.1798H8.08187L13.6152 10.1254H20.4927ZM14.6102 35.5406L8.08187 24.2993L12.1141 20.3892L21.348 35.5406H14.6102Z" fill="#C52978"/>
<path d="M108.649 0.991913L148.179 11.5839L142.883 31.3487L103.353 20.7567L108.649 0.991913Z" fill="#C52978"/>
<path d="M102.159 22.2791L142.422 33.0677L140.117 34.2922L99.8539 23.5037L102.159 22.2791Z" fill="#C52978"/>
<path d="M104.528 2.62047L106.93 0.531808L101.626 20.3255L99.2242 22.4141L104.528 2.62047Z" fill="#C52978"/>
</svg>
